<svg xmlns="http://www.w3.org/2000/svg">
  <defs>
    <!-- astro icon -->
    <symbol id="astro" viewBox="0 0 85 107">
      <path d="M27.5894 91.1365C22.7555 86.7178 21.3444 77.4335 23.3583 70.7072C26.8503 74.948 31.6888 76.2914 36.7005 77.0497C44.4375 78.2199 52.0359 77.7822 59.2232 74.2459C60.0454 73.841 60.8052 73.3027 61.7036 72.7574C62.378 74.714 62.5535 76.6892 62.318 78.6996C61.7452 83.5957 59.3086 87.3778 55.4332 90.2448C53.8835 91.3916 52.2437 92.4167 50.6432 93.4979C45.7262 96.8213 44.3959 100.718 46.2435 106.386C46.2874 106.525 46.3267 106.663 46.426 107C43.9155 105.876 42.0817 104.24 40.6845 102.089C39.2087 99.8193 38.5066 97.3081 38.4696 94.5909C38.4511 93.2686 38.4511 91.9345 38.2733 90.6309C37.8391 87.4527 36.3471 86.0297 33.5364 85.9478C30.6518 85.8636 28.37 87.6469 27.7649 90.4554C27.7187 90.6707 27.6517 90.8837 27.5847 91.1341L27.5894 91.1365Z" fill="#F041FF"/>
      <path d="M0 69.5866C0 69.5866 14.3139 62.6137 28.6678 62.6137L39.4901 29.1204C39.8953 27.5007 41.0783 26.3999 42.4139 26.3999C43.7495 26.3999 44.9325 27.5007 45.3377 29.1204L56.1601 62.6137C73.1601 62.6137 84.8278 69.5866 84.8278 69.5866C84.8278 69.5866 60.5145 3.35233 60.467 3.21944C59.7692 1.2612 58.5911 0 57.0029 0H27.8274C26.2392 0 25.1087 1.2612 24.3634 3.21944C24.3108 3.34983 0 69.5866 0 69.5866Z" fill="currentColor"/>
    </symbol>

    <!-- javascript icon -->
    <symbol id="javascript" viewBox="0 0 630 630">
      <rect width="630" height="630" fill="#f7df1e"/>
      <path fill="black" d="m423.2 492.19c12.69 20.72 29.2 35.95 58.4 35.95 24.53 0 40.2-12.26 40.2-29.2 0-20.3-16.1-27.49-43.1-39.3l-14.8-6.35c-42.72-18.2-71.1-41-71.1-89.2 0-44.4 33.83-78.2 86.7-78.2 37.64 0 64.7 13.1 84.2 47.4l-46.1 29.6c-10.15-18.2-21.1-25.37-38.1-25.37-17.34 0-28.33 11-28.33 25.37 0 17.76 11 24.95 36.4 35.95l14.8 6.34c50.3 21.57 78.7 43.56 78.7 93 0 53.3-41.87 82.5-98.1 82.5-54.98 0-90.5-26.2-107.88-60.54zm-209.13 5.13c9.3 16.5 17.76 30.45 38.1 30.45 19.45 0 31.72-7.61 31.72-37.2v-201.3h59.2v202.1c0 61.3-35.94 89.2-88.4 89.2-47.4 0-74.85-24.53-88.81-54.075z"/>
    </symbol>

    <!-- typescript icon -->
    <symbol id="typescript" fill="none" viewBox="0 0 512 512">
      <rect fill="#3178c6" height="512" rx="50" width="512"/>
      <rect fill="#3178c6" height="512" rx="50" width="512"/>
      <path clip-rule="evenodd" fill="#fff" fill-rule="evenodd" d="m316.939 407.424v50.061c8.138 4.172 17.763 7.3 28.875 9.386s22.823 3.129 35.135 3.129c11.999 0 23.397-1.147 34.196-3.442 10.799-2.294 20.268-6.075 28.406-11.342 8.138-5.266 14.581-12.15 19.328-20.65s7.121-19.007 7.121-31.522c0-9.074-1.356-17.026-4.069-23.857s-6.625-12.906-11.738-18.225c-5.112-5.319-11.242-10.091-18.389-14.315s-15.207-8.213-24.18-11.967c-6.573-2.712-12.468-5.345-17.685-7.9-5.217-2.556-9.651-5.163-13.303-7.822-3.652-2.66-6.469-5.476-8.451-8.448-1.982-2.973-2.974-6.336-2.974-10.091 0-3.441.887-6.544 2.661-9.308s4.278-5.136 7.512-7.118c3.235-1.981 7.199-3.52 11.894-4.615 4.696-1.095 9.912-1.642 15.651-1.642 4.173 0 8.581.313 13.224.938 4.643.626 9.312 1.591 14.008 2.894 4.695 1.304 9.259 2.947 13.694 4.928 4.434 1.982 8.529 4.276 12.285 6.884v-46.776c-7.616-2.92-15.937-5.084-24.962-6.492s-19.381-2.112-31.066-2.112c-11.895 0-23.163 1.278-33.805 3.833s-20.006 6.544-28.093 11.967c-8.086 5.424-14.476 12.333-19.171 20.729-4.695 8.395-7.043 18.433-7.043 30.114 0 14.914 4.304 27.638 12.912 38.172 8.607 10.533 21.675 19.45 39.204 26.751 6.886 2.816 13.303 5.579 19.25 8.291s11.086 5.528 15.415 8.448c4.33 2.92 7.747 6.101 10.252 9.543 2.504 3.441 3.756 7.352 3.756 11.733 0 3.233-.783 6.231-2.348 8.995s-3.939 5.162-7.121 7.196-7.147 3.624-11.894 4.771c-4.748 1.148-10.303 1.721-16.668 1.721-10.851 0-21.597-1.903-32.24-5.71-10.642-3.806-20.502-9.516-29.579-17.13zm-84.159-123.342h64.22v-41.082h-179v41.082h63.906v182.918h50.874z"/>
    </symbol>

    <!-- HTML -->
    <symbol id="html" viewBox="0 0 128 128">
      <path fill="#E44D26" d="M19.037 113.876 9.032 1.661h109.936l-10.016 112.198-45.019 12.48z"/>
      <path fill="#F16529" d="m64 116.8 36.378-10.086 8.559-95.878H64z"/>
      <path fill="#EBEBEB" d="M64 52.455H45.788L44.53 38.361H64V24.599H29.489l.33 3.692 3.382 37.927H64zm0 35.743-.061.017-15.327-4.14-.979-10.975H33.816l1.928 21.609 28.193 7.826.063-.017z"/>
      <path fill="#fff" d="M63.952 52.455v13.763h16.947l-1.597 17.849-15.35 4.143v14.319l28.215-7.82.207-2.325 3.234-36.233.335-3.696h-3.708zm0-27.856v13.762h33.244l.276-3.092.628-6.978.329-3.692z"/>
    </symbol>

    <!-- CSS -->
    <symbol id="css" viewBox="0 0 128 128">
      <path fill="#1572B6" d="M18.814 114.123 8.76 1.352h110.48l-10.064 112.754-45.243 12.543-45.119-12.526z"/>
      <path fill="#33A9DC" d="m64.001 117.062 36.559-10.136 8.601-96.354h-45.16v106.49z"/>
      <path fill="#fff" d="M64.001 51.429h18.302l1.264-14.163H64.001V23.435h34.682l-.332 3.711-3.4 38.114h-30.95V51.429z"/>
      <path fill="#EBEBEB" d="m64.083 87.349-.061.018-15.403-4.159-.985-11.031H33.752l1.937 21.717 28.331 7.863.063-.018v-14.39z"/>
      <path fill="#fff" d="m81.127 64.675-1.666 18.522-15.426 4.164v14.39l28.354-7.858.208-2.337 2.406-26.881H81.127z"/>
      <path fill="#EBEBEB" d="M64.048 23.435v13.831H30.64l-.277-3.108-.63-7.012-.331-3.711h34.646zm-.047 27.996v13.831H48.792l-.277-3.108-.631-7.012-.33-3.711h16.447z"/>
    </symbol>

    <!-- tailwind icon -->
    <symbol id="tailwind" viewBox="0 0 47 40" fill="none">
      <path fill="#6366f1" d="M23.5 6.5C17.5 6.5 13.75 9.5 12.25 15.5C14.5 12.5 17.125 11.375 20.125 12.125C21.8367 12.5529 23.0601 13.7947 24.4142 15.1692C26.6202 17.4084 29.1734 20 34.75 20C40.75 20 44.5 17 46 11C43.75 14 41.125 15.125 38.125 14.375C36.4133 13.9471 35.1899 12.7053 33.8357 11.3308C31.6297 9.09158 29.0766 6.5 23.5 6.5ZM12.25 20C6.25 20 2.5 23 1 29C3.25 26 5.875 24.875 8.875 25.625C10.5867 26.0529 11.8101 27.2947 13.1642 28.6693C15.3702 30.9084 17.9234 33.5 23.5 33.5C29.5 33.5 33.25 30.5 34.75 24.5C32.5 27.5 29.875 28.625 26.875 27.875C25.1633 27.4471 23.9399 26.2053 22.5858 24.8307C20.3798 22.5916 17.8266 20 12.25 20Z"/>
    </symbol>

    <!-- React -->
    <symbol id="reactjs" viewBox="0 0 128 128">
      <g fill="#61DAFB">
        <circle cx="64" cy="64" r="11.4"/>
        <path d="M107.3 45.2c-2.2-.8-4.5-1.6-6.9-2.3.6-2.4 1.1-4.8 1.5-7.1 2.1-13.2-.2-22.5-6.6-26.1-1.9-1.1-4-1.6-6.4-1.6-7 0-15.9 5.2-24.9 13.9-9-8.7-17.9-13.9-24.9-13.9-2.4 0-4.5.5-6.4 1.6-6.4 3.7-8.7 13-6.6 26.1.4 2.3.9 4.7 1.5 7.1-2.4.7-4.7 1.4-6.9 2.3C8.2 50 1.4 56.6 1.4 64s6.9 14 19.3 18.8c2.2.8 4.5 1.6 6.9 2.3-.6 2.4-1.1 4.8-1.5 7.1-2.1 13.2.2 22.5 6.6 26.1 1.9 1.1 4 1.6 6.4 1.6 7.1 0 16-5.2 24.9-13.9 9 8.7 17.9 13.9 24.9 13.9 2.4 0 4.5-.5 6.4-1.6 6.4-3.7 8.7-13 6.6-26.1-.4-2.3-.9-4.7-1.5-7.1 2.4-.7 4.7-1.4 6.9-2.3 12.5-4.8 19.3-11.4 19.3-18.8s-6.8-14-19.3-18.8zM92.5 14.7c4.1 2.4 5.5 9.8 3.8 20.3-.3 2.1-.8 4.3-1.4 6.6-5.2-1.2-10.7-2-16.5-2.5-3.4-4.8-6.9-9.1-10.4-13 7.4-7.3 14.9-12.3 21-12.3 1.3 0 2.5.3 3.5.9zM81.3 74c-1.8 3.2-3.9 6.4-6.1 9.6-3.7.3-7.4.4-11.2.4-3.9 0-7.6-.1-11.2-.4-2.2-3.2-4.2-6.4-6-9.6-1.9-3.3-3.7-6.7-5.3-10 1.6-3.3 3.4-6.7 5.3-10 1.8-3.2 3.9-6.4 6.1-9.6 3.7-.3 7.4-.4 11.2-.4 3.9 0 7.6.1 11.2.4 2.2 3.2 4.2 6.4 6 9.6 1.9 3.3 3.7 6.7 5.3 10-1.7 3.3-3.4 6.6-5.3 10zm8.3-3.3c1.5 3.5 2.7 6.9 3.8 10.3-3.4.8-7 1.4-10.8 1.9 1.2-1.9 2.5-3.9 3.6-6 1.2-2.1 2.3-4.2 3.4-6.2zM64 97.8c-2.4-2.6-4.7-5.4-6.9-8.3 2.3.1 4.6.2 6.9.2 2.3 0 4.6-.1 6.9-.2-2.2 2.9-4.5 5.7-6.9 8.3zm-18.6-15c-3.8-.5-7.4-1.1-10.8-1.9 1.1-3.3 2.3-6.8 3.8-10.3 1.1 2 2.2 4.1 3.4 6.1 1.2 2.2 2.4 4.1 3.6 6.1zm-7-25.5c-1.5-3.5-2.7-6.9-3.8-10.3 3.4-.8 7-1.4 10.8-1.9-1.2 1.9-2.5 3.9-3.6 6-1.2 2.1-2.3 4.2-3.4 6.2zM64 30.2c2.4 2.6 4.7 5.4 6.9 8.3-2.3-.1-4.6-.2-6.9-.2-2.3 0-4.6.1-6.9.2 2.2-2.9 4.5-5.7 6.9-8.3zm22.2 21-3.6-6c3.8.5 7.4 1.1 10.8 1.9-1.1 3.3-2.3 6.8-3.8 10.3-1.1-2.1-2.2-4.2-3.4-6.2zM31.7 35c-1.7-10.5-.3-17.9 3.8-20.3 1-.6 2.2-.9 3.5-.9 6 0 13.5 4.9 21 12.3-3.5 3.8-7 8.2-10.4 13-5.8.5-11.3 1.4-16.5 2.5-.6-2.3-1-4.5-1.4-6.6zM7 64c0-4.7 5.7-9.7 15.7-13.4 2-.8 4.2-1.5 6.4-2.1 1.6 5 3.6 10.3 6 15.6-2.4 5.3-4.5 10.5-6 15.5C15.3 75.6 7 69.6 7 64zm28.5 49.3c-4.1-2.4-5.5-9.8-3.8-20.3.3-2.1.8-4.3 1.4-6.6 5.2 1.2 10.7 2 16.5 2.5 3.4 4.8 6.9 9.1 10.4 13-7.4 7.3-14.9 12.3-21 12.3-1.3 0-2.5-.3-3.5-.9zM96.3 93c1.7 10.5.3 17.9-3.8 20.3-1 .6-2.2.9-3.5.9-6 0-13.5-4.9-21-12.3 3.5-3.8 7-8.2 10.4-13 5.8-.5 11.3-1.4 16.5-2.5.6 2.3 1 4.5 1.4 6.6zm9-15.6c-2 .8-4.2 1.5-6.4 2.1-1.6-5-3.6-10.3-6-15.6 2.4-5.3 4.5-10.5 6-15.5 13.8 4 22.1 10 22.1 15.6 0 4.7-5.8 9.7-15.7 13.4z"/>
      </g>
    </symbol>

    <!-- Next.js -->
    <symbol id="nextjs" viewBox="0 0 128 128">
      <path d="M64 0C28.7 0 0 28.7 0 64s28.7 64 64 64c11.2 0 21.7-2.9 30.8-7.9L48.4 55.3v36.6h-6.8V41.8h6.8l50.5 75.8C116.4 106.2 128 86.5 128 64c0-35.3-28.7-64-64-64zm22.1 84.6-7.5-11.3V41.8h7.5v42.8z" fill="#808080"/>
    </symbol>

    <!-- Gatsby -->
    <symbol id="gatsby" viewBox="0 0 128 128">
      <path fill="#64328B" d="M64 0C28.7 0 0 28.7 0 64s28.7 64 64 64 64-28.7 64-64S99.3 0 64 0zM13.2 64 64 114.8c-28.1 0-50.8-22.7-50.8-50.8zm62.2 49.5-60.9-61C19.7 30 39.9 13.2 64 13.2c16.6 0 31.3 7.9 40.5 20.2L97 40.6c-7.3-10.4-19.3-17.1-33-17.1-17.6 0-32.5 11.2-38.1 26.8C33.1 57 75.4 98.8 78.1 102c12.7-4.7 22.3-15.5 25.4-28.9H81.9v-9.4l33 .2c-.1 24.3-16.9 44.5-39.5 49.6z"/>
    </symbol>

    <!-- Bootstrap -->
    <symbol id="bootstrap" viewBox="0 0 256 256" preserveAspectRatio="xMidYMid">
      <path d="M0 222.991C0 241.223 14.779 256 33.009 256H222.99C241.223 256 256 241.221 256 222.991V33.01C256 14.777 241.221 0 222.991 0H33.01C14.777 0 0 14.779 0 33.009V222.99Z" fill="#563D7C"/>
      <path d="M106.158 113.238V76.985h31.911c3.04 0 5.97.253 8.792.76 2.822.506 5.319 1.41 7.49 2.713 2.17 1.303 3.907 3.112 5.21 5.427 1.302 2.316 1.954 5.283 1.954 8.9 0 6.513-1.954 11.217-5.862 14.111-3.907 2.895-8.9 4.342-14.979 4.342h-34.516ZM72.075 50.5v155h75.112c6.947 0 13.713-.868 20.298-2.605 6.585-1.737 12.446-4.414 17.584-8.032 5.137-3.618 9.226-8.286 12.265-14.002 3.04-5.717 4.559-12.483 4.559-20.298 0-9.697-2.352-17.982-7.055-24.856-4.704-6.875-11.832-11.687-21.384-14.437 6.947-3.328 12.194-7.598 15.74-12.808 3.545-5.21 5.318-11.722 5.318-19.538 0-7.236-1.194-13.314-3.582-18.235-2.388-4.92-5.753-8.864-10.095-11.831-4.341-2.967-9.551-5.102-15.63-6.404-6.078-1.303-12.808-1.954-20.189-1.954H72.075Zm34.083 128.515v-42.549h37.121c7.381 0 13.315 1.7 17.802 5.102 4.486 3.401 6.73 9.081 6.73 17.041 0 4.053-.688 7.381-2.063 9.986-1.375 2.605-3.22 4.668-5.536 6.187-2.315 1.52-4.993 2.605-8.032 3.257-3.04.65-6.223.976-9.552.976h-36.47Z" fill="#FFF"/>
    </symbol>

    <!-- Styled-components -->
    <symbol id="styled-components" fill="pink" viewBox="0 0 24 24">
      <path d="m16.214 6.762-.075.391c-.116.741-.074.953.244 1.228l.307.254-.318 1.418c-.19.846-.423 1.555-.571 1.788-.127.201-.275.497-.307.656-.053.19-.233.381-.508.55-.243.138-.72.508-1.058.805-.27.243-.456.392-.557.456l-.33.261a1.4 1.4 0 0 0-.189.411c-.023.107-.01.178.024.23.033.05.09.085.168.107a.954.954 0 0 0 .282.023 3 3 0 0 0 .632-.112c.07-.019.125-.037.173-.053.074-.091.245-.263.548-.562.804-.793 1.111-1.227.794-1.11-.117.042-.064-.064.137-.276.424-.413.667-1.037 1.175-2.994.402-1.545.402-1.567.698-1.567.139 0 .532.024.532.024V6.762h-.902zm3.839 3.165c-.064 0-.17.096-.233.202-.116.19.021.306 1.767 1.396 1.037.657 1.873 1.217 1.852 1.26-.021.031-.868.582-1.883 1.217-1.842 1.142-1.852 1.153-1.683 1.386.212.275 0 .37 2.391-1.122L24 13.155v-.836l-1.937-1.196c-1.047-.656-1.957-1.185-2.01-1.196zm-16.085.117c-.053 0-.963.54-2.01 1.185L0 12.425v.836l1.947 1.217c1.08.666 1.99 1.217 2.032 1.217.042 0 .127-.096.212-.212.127-.201.02-.286-1.768-1.418C.72 12.996.54 12.848.71 12.732c.106-.074.91-.572 1.778-1.111 1.979-1.217 1.873-1.133 1.714-1.387-.063-.105-.17-.2-.233-.19zm8.684.023c-.292-.002-.92.443-2.8 1.978-.081.193-.088.326-.051.412.024.059.068.1.129.13.06.03.138.048.224.055.171.015.373-.012.536-.044l.11-.025a.386.386 0 0 1 .144-.118c.116-.064.603-.508 1.09-.984.857-.868 1.058-1.26.709-1.387a.24.24 0 0 0-.09-.017zm2.196.603c-.257.007-.72.305-1.513.938-.398.323-.65.497-.785.533l-.524.414c-.197.36-.226.583-.174.706a.25.25 0 0 0 .138.134.644.644 0 0 0 .24.045 2.18 2.18 0 0 0 .58-.085 3.466 3.466 0 0 0 .291-.092l.029-.012.053-.028c.1-.129.33-.372.618-.652.91-.878 1.375-1.502 1.28-1.735-.043-.113-.117-.17-.233-.166zm-2.424 1.08c-.074.008-.24.136-.539.398-.432.382-.903.602-1.066.504a3.97 3.97 0 0 1-.114.024c-.166.033-.373.06-.558.045a.708.708 0 0 1-.252-.063.337.337 0 0 1-.168-.17c-.037-.09-.037-.202.005-.345l-.65.534-1.471 1.217v1.973l4.82-3.797a.41.41 0 0 1 .016-.123c.037-.134.035-.202-.023-.196zm2.074.639c-.073 0-.195.103-.39.31-.265.283-.682.557-.903.613l-.034.018a2.191 2.191 0 0 1-.11.042c-.06.02-.138.044-.228.068-.18.049-.404.094-.604.089a.732.732 0 0 1-.275-.054.344.344 0 0 1-.184-.18c-.058-.139-.035-.334.092-.611L7.61 16.033v1.205h1.868l3.962-3.112c.103-.114.258-.27.467-.465.56-.519.687-.698.687-.963 0-.206-.023-.31-.096-.31zm.943 1.95-.339.338c-.19.18-.529.402-.761.497l-.046.02-.003.005-.01.01c-.009.007-.013.008-.02.011a3.432 3.432 0 0 1-.282.093 3.058 3.058 0 0 1-.65.115 1.035 1.035 0 0 1-.31-.027.364.364 0 0 1-.218-.144c-.048-.074-.062-.173-.035-.295a1.11 1.11 0 0 1 .095-.25l-3.197 2.526h4.252l.508-.582c.698-.814 1.016-1.396 1.016-1.894z"/>
    </symbol>

    <!-- SASS -->
    <symbol id="sass" viewBox="0 0 128 128">
      <path fill-rule="evenodd" clip-rule="evenodd" fill="#CB6699" d="M1.219 56.156c0 .703.207 1.167.323 1.618.756 2.933 2.381 5.45 4.309 7.746 2.746 3.272 6.109 5.906 9.554 8.383 2.988 2.148 6.037 4.248 9.037 6.38.515.366 1.002.787 1.561 1.236-.481.26-.881.489-1.297.7-3.959 2.008-7.768 4.259-11.279 6.986-2.116 1.644-4.162 3.391-5.607 5.674-2.325 3.672-3.148 7.584-1.415 11.761.506 1.22 1.278 2.274 2.367 3.053.353.252.749.502 1.162.6 1.058.249 2.136.412 3.207.609l3.033-.002c3.354-.299 6.407-1.448 9.166-3.352 4.312-2.976 7.217-6.966 8.466-12.087.908-3.722.945-7.448-.125-11.153a11.696 11.696 0 0 0-.354-1.014c-.13-.333-.283-.657-.463-1.072l6.876-3.954.103.088c-.125.409-.258.817-.371 1.23-.817 2.984-1.36 6.02-1.165 9.117.208 3.3 1.129 6.389 3.061 9.146 1.562 2.23 5.284 2.313 6.944.075.589-.795 1.16-1.626 1.589-2.513 1.121-2.315 2.159-4.671 3.23-7.011l.187-.428c-.077 1.108-.167 2.081-.208 3.055-.064 1.521.025 3.033.545 4.48.445 1.238 1.202 2.163 2.62 2.326.97.111 1.743-.333 2.456-.896a10.384 10.384 0 0 0 2.691-3.199c1.901-3.491 3.853-6.961 5.576-10.54 1.864-3.871 3.494-7.855 5.225-11.792l.286-.698c.409 1.607.694 3.181 1.219 4.671.61 1.729 1.365 3.417 2.187 5.058.389.775.344 1.278-.195 1.928-2.256 2.72-4.473 5.473-6.692 8.223-.491.607-.98 1.225-1.389 1.888a3.701 3.701 0 0 0-.48 1.364 1.737 1.737 0 0 0 1.383 1.971 9.661 9.661 0 0 0 2.708.193c3.097-.228 5.909-1.315 8.395-3.157 3.221-2.386 4.255-5.642 3.475-9.501-.211-1.047-.584-2.065-.947-3.074-.163-.455-.174-.774.123-1.198 2.575-3.677 4.775-7.578 6.821-11.569.081-.157.164-.314.306-.482.663 3.45 1.661 6.775 3.449 9.792-.912.879-1.815 1.676-2.632 2.554-1.799 1.934-3.359 4.034-4.173 6.595-.35 1.104-.619 2.226-.463 3.405.242 1.831 1.742 3.021 3.543 2.604 3.854-.892 7.181-2.708 9.612-5.925 1.636-2.166 1.785-4.582 1.1-7.113-.188-.688-.411-1.365-.651-2.154.951-.295 1.878-.649 2.837-.868 4.979-1.136 9.904-.938 14.702.86 2.801 1.05 5.064 2.807 6.406 5.571 1.639 3.379.733 6.585-2.452 8.721-.297.199-.637.356-.883.605a.869.869 0 0 0-.205.67c.021.123.346.277.533.275 1.047-.008 1.896-.557 2.711-1.121 2.042-1.413 3.532-3.314 3.853-5.817l.063-.188-.077-1.63c-.031-.094.023-.187.016-.258-.434-3.645-2.381-6.472-5.213-8.688-3.28-2.565-7.153-3.621-11.249-3.788a25.401 25.401 0 0 0-9.765 1.503c-.897.325-1.786.71-2.688 1.073-.121-.219-.251-.429-.358-.646-.926-1.896-2.048-3.708-2.296-5.882-.176-1.544-.392-3.086-.025-4.613.353-1.469.813-2.913 1.246-4.362.223-.746.066-1.164-.646-1.5a2.854 2.854 0 0 0-.786-.258c-1.75-.254-3.476-.109-5.171.384-.6.175-1.036.511-1.169 1.175-.076.381-.231.746-.339 1.122-.443 1.563-.757 3.156-1.473 4.645-1.794 3.735-3.842 7.329-5.938 10.897-.227.385-.466.763-.752 1.23-.736-1.54-1.521-2.922-1.759-4.542-.269-1.832-.481-3.661-.025-5.479.339-1.356.782-2.687 1.19-4.025.193-.636.104-.97-.472-1.305-.291-.169-.62-.319-.948-.368a11.643 11.643 0 0 0-5.354.438c-.543.176-.828.527-.994 1.087-.488 1.652-.904 3.344-1.589 4.915-2.774 6.36-5.628 12.687-8.479 19.013-.595 1.321-1.292 2.596-1.963 3.882-.17.326-.418.613-.63.919-.17-.201-.236-.339-.235-.477.005-.813-.092-1.65.063-2.436a172.189 172.189 0 0 1 1.578-7.099c.47-1.946 1.017-3.874 1.538-5.807.175-.647.178-1.252-.287-1.796-.781-.911-2.413-1.111-3.381-.409l-.428.242.083-.69c.204-1.479.245-2.953-.161-4.41-.506-1.816-1.802-2.861-3.686-2.803-.878.027-1.8.177-2.613.497-3.419 1.34-6.048 3.713-8.286 6.568a2.592 2.592 0 0 1-.757.654c-2.893 1.604-5.795 3.188-8.696 4.778l-3.229 1.769c-.866-.826-1.653-1.683-2.546-2.41-2.727-2.224-5.498-4.393-8.244-6.592-2.434-1.949-4.792-3.979-6.596-6.56-1.342-1.92-2.207-4.021-2.29-6.395-.105-3.025.753-5.789 2.293-8.362 1.97-3.292 4.657-5.934 7.611-8.327 3.125-2.53 6.505-4.678 10.008-6.639 4.901-2.743 9.942-5.171 15.347-6.774 5.542-1.644 11.165-2.585 16.965-1.929 2.28.258 4.494.78 6.527 1.895 1.557.853 2.834 1.97 3.428 3.716.586 1.718.568 3.459.162 5.204-.825 3.534-2.76 6.447-5.195 9.05-3.994 4.267-8.866 7.172-14.351 9.091a39.478 39.478 0 0 1-9.765 2.083c-2.729.229-5.401-.013-7.985-.962-1.711-.629-3.201-1.591-4.399-2.987-.214-.25-.488-.521-.887-.287-.391.23-.46.602-.329.979.219.626.421 1.278.762 1.838.857 1.405 2.107 2.424 3.483 3.298 2.643 1.681 5.597 2.246 8.66 2.377 4.648.201 9.183-.493 13.654-1.74 6.383-1.78 11.933-4.924 16.384-9.884 3.706-4.13 6.353-8.791 6.92-14.419.277-2.747-.018-5.438-1.304-7.944-1.395-2.715-3.613-4.734-6.265-6.125C68.756 18.179 64.588 17 60.286 17h-4.31c-5.21 0-10.247 1.493-15.143 3.274-3.706 1.349-7.34 2.941-10.868 4.703-7.683 3.839-14.838 8.468-20.715 14.833-2.928 3.171-5.407 6.67-6.833 10.79a40.494 40.494 0 0 0-1.111 3.746m27.839 36.013c-.333 4.459-2.354 8.074-5.657 11.002-1.858 1.646-3.989 2.818-6.471 3.23-.9.149-1.821.185-2.694-.188-1.245-.532-1.524-1.637-1.548-2.814-.037-1.876.62-3.572 1.521-5.186 1.176-2.104 2.9-3.708 4.741-5.206 2.9-2.361 6.046-4.359 9.268-6.245l.243-.1c.498 1.84.735 3.657.597 5.507zM54.303 70.98c-.235 1.424-.529 2.849-.945 4.229-1.438 4.777-3.285 9.406-5.282 13.973-.369.845-.906 1.616-1.373 2.417a1.689 1.689 0 0 1-.283.334c-.578.571-1.126.541-1.418-.206-.34-.868-.549-1.797-.729-2.716-.121-.617-.092-1.265-.13-1.897.039-4.494 1.41-8.578 3.736-12.38.959-1.568 2.003-3.062 3.598-4.054a6.27 6.27 0 0 1 1.595-.706c.85-.239 1.372.154 1.231 1.006zm17.164 21.868 6.169-7.203c.257 2.675-4.29 8.015-6.169 7.203zm19.703-4.847c-.436.25-.911.43-1.358.661-.409.212-.544-.002-.556-.354a2.385 2.385 0 0 1 .093-.721c.833-2.938 2.366-5.446 4.647-7.486l.16-.082c1.085 3.035-.169 6.368-2.986 7.982z"/>
    </symbol>

    <!-- Material UI -->
    <symbol id="material-ui" viewBox="0 0 128 128">
      <path fill="#1FA6CA" d="M.2 68.6V13.4L48 41v18.4L16.1 41v36.8L.2 68.6z"/>
      <path fill="#1C7FB6" d="m48 41 47.9-27.6v55.3L64 87l-16-9.2 32-18.4V41L48 59.4V41z"/>
      <path fill="#1FA6CA" d="M48 77.8v18.4l32 18.4V96.2L48 77.8z"/>
      <path fill="#1C7FB6" d="M80 114.6 127.8 87V50.2l-16 9.2v18.4L80 96.2v18.4zM111.9 41V22.6l16-9.2v18.4l-16 9.2z"/>
    </symbol>

    <!-- Chakra UI -->
    <symbol id="chakra-ui" fill="#2C867B" viewBox="0 0 24 24">
      <path d="M12 0C5.352 0 0 5.352 0 12s5.352 12 12 12 12-5.352 12-12S18.648 0 12 0zm2.8 4.333c.13-.004.248.136.171.278l-3.044 5.58a.187.187 0 0 0 .164.276h5.26c.17 0 .252.207.128.323l-9.22 8.605c-.165.154-.41-.063-.278-.246l4.364-6.021a.187.187 0 0 0-.151-.296H6.627a.187.187 0 0 1-.131-.32l8.18-8.123a.182.182 0 0 1 .125-.056z"/>
    </symbol>

    <!-- Ant Design -->
    <symbol id="ant-design" fill="#F34253" viewBox="0 0 1024 1024" class="aicon">
      <path d="M716.3 313.8c19-18.9 19-49.7 0-68.6l-69.9-69.9.1.1c-18.5-18.5-50.3-50.3-95.3-95.2-21.2-20.7-55.5-20.5-76.5.5L80.9 474.2a53.84 53.84 0 0 0 0 76.4L474.6 944a54.14 54.14 0 0 0 76.5 0l165.1-165c19-18.9 19-49.7 0-68.6a48.7 48.7 0 0 0-68.7 0l-125 125.2c-5.2 5.2-13.3 5.2-18.5 0L189.5 521.4c-5.2-5.2-5.2-13.3 0-18.5l314.4-314.2c.4-.4.9-.7 1.3-1.1 5.2-4.1 12.4-3.7 17.2 1.1l125.2 125.1c19 19 49.8 19 68.7 0zM408.6 514.4a106.3 106.2 0 1 0 212.6 0 106.3 106.2 0 1 0-212.6 0zm536.2-38.6L821.9 353.5c-19-18.9-49.8-18.9-68.7.1a48.4 48.4 0 0 0 0 68.6l83 82.9c5.2 5.2 5.2 13.3 0 18.5l-81.8 81.7a48.4 48.4 0 0 0 0 68.6 48.7 48.7 0 0 0 68.7 0l121.8-121.7a53.93 53.93 0 0 0-.1-76.4z"/>
    </symbol>

    <!-- Shadcn UI -->
    <symbol id="shadcn-ui" viewBox="0 0 256 256">
      <path fill="white" d="M0 0h256v256H0z"/>
      <path fill="white" stroke="#171719" stroke-linecap="round" stroke-linejoin="round" stroke-width="16" d="m208 128-80 80m64-168L40 192"/>
    </symbol>

    <!-- Tanstack Query -->
    <symbol id="tanstack-query" viewBox="0 0 190 190">
      <g fill="none" fill-rule="evenodd">
        <path d="M150.28 61.34c3.09-14.98 3.75-26.47 1.75-34.81-1.19-4.96-3.36-9.01-6.66-11.93-3.5-3.08-7.9-4.6-12.86-4.6-8.18 0-16.78 3.73-25.97 10.8a118.25 118.25 0 0 0-11.67 10.44c-.32-.4-.69-.8-1.1-1.16-11.4-10.17-21.02-16.48-29.24-18.92-4.89-1.44-9.48-1.58-13.66-.18-4.41 1.49-7.93 4.55-10.4 8.85-4.1 7.09-5.18 16.4-3.66 27.9.63 4.69 1.69 9.8 3.2 15.33-.57.07-1.14.2-1.7.38-14.5 4.8-24.75 9.95-30.97 15.85-3.7 3.5-6.1 7.41-6.98 11.73-.92 4.56-.02 9.14 2.46 13.43 4.08 7.08 11.6 12.66 22.3 17.08 4.3 1.78 9.16 3.39 14.6 4.83a8.73 8.73 0 0 0-.57 1.78c-3.1 14.98-3.76 26.47-1.76 34.81 1.19 4.97 3.36 9.01 6.67 11.93 3.49 3.09 7.9 4.6 12.86 4.6 8.18 0 16.77-3.72 25.96-10.8 3.79-2.92 7.72-6.44 11.8-10.57a8.7 8.7 0 0 0 1.55 1.8c11.42 10.18 21.04 16.5 29.26 18.93 4.89 1.44 9.48 1.58 13.66.18 4.41-1.49 7.93-4.55 10.4-8.85 4.1-7.09 5.18-16.4 3.66-27.9a119.5 119.5 0 0 0-3.36-15.93c.62-.06 1.25-.2 1.87-.4 14.48-4.8 24.74-9.95 30.96-15.85 3.7-3.5 6.1-7.41 6.98-11.73.92-4.56.02-9.14-2.46-13.43-4.08-7.08-11.6-12.66-22.3-17.08a118.57 118.57 0 0 0-15.08-4.96c.2-.5.36-1 .47-1.55z" fill="#002C4B" fill-rule="nonzero"/>
        <path d="M80.4 64h29.2a5 5 0 0 1 4.34 2.51l14.64 25.5a5 5 0 0 1 0 4.98l-14.64 25.5a5 5 0 0 1-4.33 2.51H80.4a5 5 0 0 1-4.34-2.51l-14.63-25.5a5 5 0 0 1 0-4.98l14.63-25.5A5 5 0 0 1 80.4 64zm25.59 6.28a5 5 0 0 1 4.34 2.51l11.01 19.22a5 5 0 0 1 0 4.98l-11.01 19.22a5 5 0 0 1-4.34 2.51H84.02a5 5 0 0 1-4.34-2.51L68.66 96.99a5 5 0 0 1 0-4.98L79.68 72.8a5 5 0 0 1 4.34-2.51h21.97zm-3.9 6.86H87.91a5 5 0 0 0-4.33 2.51l-7.1 12.36a5 5 0 0 0 0 4.98l7.1 12.36a5 5 0 0 0 4.33 2.5h14.16a5 5 0 0 0 4.34-2.5l7.1-12.36a5 5 0 0 0 0-4.98l-7.1-12.36a5 5 0 0 0-4.34-2.5zm-3.77 6.57a5 5 0 0 1 4.33 2.5l3.33 5.8a5 5 0 0 1 0 4.98l-3.33 5.8a5 5 0 0 1-4.33 2.5h-6.63a5 5 0 0 1-4.34-2.5l-3.33-5.8a5 5 0 0 1 0-4.98l3.33-5.8a5 5 0 0 1 4.34-2.5h6.63zM95 90.18a4.32 4.32 0 1 0 0 8.64 4.32 4.32 0 1 0 0-8.64zM60 94.5h7.77" fill="#FFD94C"/>
        <path d="M54.86 108.36a2.71 2.71 0 0 1 3.72 1.04l.47.84c3.8 6.74 7.77 13.14 11.9 19.2a286.9 286.9 0 0 0 16.41 21.71 2.78 2.78 0 0 1-.3 3.85l-.6.53c-20.11 17.57-33.18 21.08-39.21 10.53-5.9-10.32-3.77-29.08 6.4-56.28.23-.6.65-1.1 1.21-1.42zm85.67 20.68a2.7 2.7 0 0 1 3.13 2.15l.15.8c4.97 26 1.47 39.01-10.5 39.01-11.7 0-26.6-11.1-44.7-33.27a2.72 2.72 0 0 1 2.12-4.44h.95c7.63.05 15.03-.22 22.23-.79a281.1 281.1 0 0 0 26.62-3.46zm6.88-55.23a2.82 2.82 0 0 1 3.54-1.66l.8.27c25.83 8.8 35.65 18.47 29.45 29.02-6.07 10.31-23.72 17.82-52.94 22.52-.65.1-1.31-.01-1.88-.34a2.73 2.73 0 0 1-1-3.77l.5-.84c4-6.7 7.6-13.36 10.82-19.99a284.1 284.1 0 0 0 10.7-25.2zm-85.67-7.77c.65-.1 1.31.01 1.88.34a2.73 2.73 0 0 1 1 3.77l-.5.84c-4 6.7-7.6 13.36-10.82 19.99a284.09 284.09 0 0 0-10.7 25.2 2.82 2.82 0 0 1-3.55 1.67l-.8-.27C12.43 108.78 2.6 99.11 8.8 88.56c6.07-10.31 23.72-17.82 52.94-22.52zm41.8-31.57c20.11-17.57 33.18-21.08 39.21-10.53 5.9 10.32 3.77 29.08-6.4 56.28a2.71 2.71 0 0 1-4.93.38l-.47-.84a269.42 269.42 0 0 0-11.9-19.2 286.9 286.9 0 0 0-16.41-21.71 2.78 2.78 0 0 1 .3-3.85zM57.69 18c11.71 0 26.61 11.1 44.7 33.27a2.72 2.72 0 0 1-2.11 4.44h-.95c-7.63-.05-15.03.22-22.23.79a281.1 281.1 0 0 0-26.62 3.46 2.7 2.7 0 0 1-3.13-2.15l-.15-.8C42.22 31.01 45.72 18 57.69 18z" fill="#FF4154"/>
      </g>
    </symbol>

    <!-- SWR -->
    <symbol id="swr" viewBox="0 0 291 69">
      <path d="M0 36.53c.07 17.6 14.4 32.01 32.01 32.01a32.05 32.05 0 0 0 32.01-32V32a13.2 13.2 0 0 1 23.4-8.31h20.7A32.07 32.07 0 0 0 77.2 0a32.05 32.05 0 0 0-32 32.01v4.52A13.2 13.2 0 0 1 32 49.71a13.2 13.2 0 0 1-13.18-13.18 3.77 3.77 0 0 0-3.77-3.77H3.76A3.77 3.77 0 0 0 0 36.53zm122.49 32.01a32.14 32.14 0 0 1-30.89-23.7h20.67a13.16 13.16 0 0 0 23.4-8.3V32a32.05 32.05 0 0 1 32.01-32c17.43 0 31.64 14 32 31.33l.1 5.2a13.2 13.2 0 0 0 23.4 8.31h20.7a32.07 32.07 0 0 1-30.91 23.7c-17.61 0-31.94-14.42-32.01-32l-.1-4.7v-.2a13.2 13.2 0 0 0-13.18-12.81 13.2 13.2 0 0 0-13.18 13.18v4.52a32.05 32.05 0 0 1-32.01 32.01zM247.94 23.7a13.16 13.16 0 0 1 23.4 8.31 3.77 3.77 0 0 0 3.77 3.77h11.3a3.77 3.77 0 0 0 3.76-3.77A32.05 32.05 0 0 0 258.16 0a32.07 32.07 0 0 0-30.92 23.7h20.7z" fill="lightgreen"/>
    </symbol>

    <!-- Apollo GraphQL -->
    <symbol id="apollo-graphql" viewBox="0 0 256 256" preserveAspectRatio="xMidYMid">
      <path d="M160.227 178.519h27.63L143.75 64.049h-30.549l-44.107 114.47h27.632l7.208-19.39h41.675l-7.544-21.456h-27.44l17.85-49.254 31.752 90.1zm91.112-84.751a6.641 6.641 0 0 0-8.185-4.627 6.648 6.648 0 0 0-4.628 8.183A114.646 114.646 0 0 1 242.704 128c0 63.248-51.456 114.702-114.704 114.702-63.248 0-114.703-51.454-114.703-114.702C13.297 64.751 64.752 13.296 128 13.296c26.793 0 52.718 9.518 73.179 26.456a15.938 15.938 0 0 0-1.238 6.173c0 8.835 7.162 15.997 15.997 15.997s15.997-7.162 15.997-15.997-7.162-15.997-15.997-15.997c-1.701 0-3.338.271-4.876.763C188.022 11.056 158.513 0 128 0 57.421 0 0 57.42 0 128c0 70.579 57.421 127.999 128 127.999 70.579 0 128-57.42 128-127.999a127.95 127.95 0 0 0-4.661-34.232z" fill="blue"/>
    </symbol>

    <!-- Redux toolkit -->
    <symbol id="redux-toolkit" viewBox="0 0 128 128">
      <path fill="#764abc" d="M88.69 88.11c-9 18.4-24.76 30.78-45.61 34.85a39.73 39.73 0 0 1-9.77 1.14c-12 0-23-5-28.34-13.19C-2.2 100-4.64 76.87 19 59.76c.48 2.61 1.46 6.19 2.11 8.31A38.24 38.24 0 0 0 10 81.1c-4.4 8.64-3.91 17.27 1.3 25.25 3.6 5.38 9.3 8.65 16.63 9.65a44 44 0 0 0 26.55-5c12.71-6.68 21.18-14.66 26.72-25.57a9.32 9.32 0 0 1-2.61-6A9.12 9.12 0 0 1 87.37 70h.34a9.15 9.15 0 0 1 1 18.25zm28.67-20.2c12.21 13.84 12.54 30.13 7.82 39.58-4.4 8.63-16 17.27-31.6 17.27a50.48 50.48 0 0 1-21-5.05c2.29-1.63 5.54-4.24 7.33-5.87a41.54 41.54 0 0 0 16 3.42c10.1 0 17.75-4.72 22.31-13.35 2.93-5.7 3.1-12.38.33-19.22a43.61 43.61 0 0 0-17.27-20.85 62 62 0 0 0-34.74-10.59h-2.93a9.21 9.21 0 0 1-8 5.54h-.31a9.13 9.13 0 0 1-.3-18.25h.33a9 9 0 0 1 8 4.89h2.61c20.8 0 39.06 7.98 51.42 22.48zm-82.75 23a7.31 7.31 0 0 1 1.14-4.73c-9.12-15.8-14-35.83-6.51-56.68C34.61 13.83 48.13 3.24 62.79 3.24c15.64 0 31.93 13.69 33.88 40.07-2.44-.81-6-2-8.14-2.44-.53-8.63-7.82-30.13-25.09-29.81-6.19.17-15.31 3.1-20 9.12a43.69 43.69 0 0 0-9.64 25.25 59.61 59.61 0 0 0 8.47 36.16 2.75 2.75 0 0 1 1.14-.16h.32a9.121 9.121 0 0 1 .33 18.24h-.33a9.16 9.16 0 0 1-9.12-8.79z"/>
    </symbol>

    <!-- Zustand -->
    <symbol id="zustand" fill="none" viewBox="0 0 378 375">
      <path stroke="orange" stroke-linecap="round" stroke-width="3" d="M6.576 366.536c-18.332 0 24.094-115.426 27.769-122.662 8.461-16.66 19.934-30.446 31.28-44.762 3.514-4.434 7.051-10.199 11.81-12.772"/>
      <path stroke="orange" stroke-linecap="round" stroke-width="3" d="M4.66 372.748c0-17.812 10.077-36.294 17.236-51.78 9.51-20.571 19.928-43.874 35.536-59.95 6.573-6.771 19.115-24.97 29.578-24.97m97.67-219.549c-12.845 1.544-26.841 14.204-37.238 21.173-15.657 10.494-26.372 24.09-37.025 40.043-11.864 17.766-15.903 42.939-20.534 63.978-4.425 20.098-9.802 51.927-1.809 71.687 6.565 16.229 10.49 26.187 22.768 38.203 8.036 7.862 17.377 20.034 27.876 23.819"/>
      <path stroke="orange" stroke-linecap="round" stroke-width="3" d="M180.85 18.57c8.678-5.214 14.523-10.944 24.684-13.348C214.906 3.005 224.033 2 233.622 2c17.702 0 35.986 4.28 52.453 11.277 16.393 6.965 26.085 16.561 37.344 30.953 8.664 11.073 22.396 19.89 26.386 34.405 2.332 8.483 6.232 16.037 10.001 23.819 3.81 7.865 4.799 16.944 8.299 24.97 7.508 17.213 8.086 32.896 8.086 51.665 0 18.89-5.446 32.749-14.257 48.444-4.473 7.969-9.475 13.666-14.895 20.942-4.796 6.439-11.599 8.863-16.81 14.499"/>
      <path stroke="orange" stroke-linecap="round" stroke-width="3" d="M136.803 277.473c15.498 14.899 41.149 14.248 60.219 19.101 21.134 5.378 43.799 7.999 65.114 2.072 21.852-6.078 56.985-15.788 68.093-39.814M148.293 81.744c-2.256 0 3.842-2.573 5.852-3.683 13.191-7.278 26.657-12.94 41.281-15.764 14.114-2.726-15.386 42.892-17.661 46.142-6.865 9.806-14.755 20.481-24.152 27.617-4.558 3.461-4.828 3.014.213 2.071 6.072-1.137 23.502-6.008 27.024 1.611m21.066-57.994c0 12.67-3.337 60.065 15.321 60.065 20.026 0 15.321-37.546 15.321-50.63 0-4.393-1.67-7-1.915-11.506-.19-3.49 1.072 17.54 1.915 22.553 1.984 11.8 5.745 47.435 5.745 35.441m40.218-57.995c-6.283 0-34.912 14.584-24.471 19.101 10.486 4.536 21.788 5.877 32.557 10.356 10.439 4.343 4.687 20.936-.426 26.466-5.548 6-7.813 10.356-16.385 10.356-4.392 0-13.973 4.755-16.172 0m-96.473 20.969c5.623 1.52 3.83 35.915 3.83 42.575 0 5.878-1.133 12.545 1.915 17.49"/>
      <path stroke="orange" stroke-linecap="round" stroke-width="3" d="M139.915 173.134c10.48 0 21.109-6.214 30.642-6.214m9.575 62.136c-2.418 20.923 2.887-83.784 5.852-62.942 1.125 7.908 6.49 14.576 8.618 22.208 1.744 6.254 2.933 12.296 5.107 18.41 1.606 4.516 3.405 18.876 3.405 14.039"/>
      <path stroke="orange" stroke-linecap="round" stroke-width="3" d="M174.387 195.917c6.608 0 11.874-2.348 17.236-6.214m21.066-18.641c0 19.344 1.915 77.338 1.915 57.995"/>
      <path stroke="orange" stroke-linecap="round" stroke-width="3" d="M212.689 175.205c7.687 9.237 14.293 20.21 19.577 31.068 2.169 4.457 6.697 9.553 7.235 14.499.134 1.233 1.949 7.364 3.404 7.364.702 0-1.719-20.255-1.915-21.863-1.617-13.292-3.404-25.971-3.404-39.353m17.235 0c.651 18.993 5.746 37.742 5.746 56.958 0 3.942 1.785 6.559 1.915 9.781.163 4.069-1.915-18.493-1.915-22.783 0-10.59-2.416-26.191 3.83-34.636 3.31-4.474 10.588-12.985 15.321-4.027 4.188 7.927 8.478 13.802 11.065 23.244 2.843 10.377-2.127 23.182-5.32 32.679-2.016 5.997-12.659 19.149-19.151 19.562-7.014.446-5.745-22.78-5.745-28.998M115.737 98.053c-6.414-6.166 8.01 17.891 9.575 20.712m-32.557 45.826c1.522 3.839 19.929-2.492 22.982-4.143m-14.124 69.386c6.383-1.534 14.24-13.861 19.151-18.641M316.823 99.348c4.524-1.468 8.152-8.817 11.49-12.427m-9.575 70.421c4.617.113 30.652 2.048 28.727 6.213m-44.048 62.137c6.411.694 29.603 23.345 26.812 24.855M195.692 43.425c0-8.326-1.067-16.593-1.915-24.855m71.338 26.926c.055.416 13.503-22.502 15.321-26.926M161.699 283.688c5.423-6.354 9.248-13.406 13.406-20.712m93.84 26.925c-5.041-5.452-13.048-11.269-15.321-18.641m-75.941-134.885c4.076-.49 8.036-.952 12.326-.952"/>
    </symbol>

    <!-- Jotai -->
    <symbol id="jotai" fill="black" viewBox="0 0 289.19 99.77" class="atext-black adark:text-white aw-full amax-w-[12rem] alg:max-w-[16rem] a2xl:max-w-[18rem]">
      <path d="M42.36 5.32h19.46v64.91a29.46 29.46 0 0 1-4 15.61 27.19 27.19 0 0 1-11.18 10.23 36.26 36.26 0 0 1-16.59 3.61 37.56 37.56 0 0 1-15.25-3A24.3 24.3 0 0 1 4 87.59Q0 81.5 0 72.23h19.59c.06 3.69 1.13 6.57 3.21 8.61a11.21 11.21 0 0 0 8.25 3.07q11.22 0 11.31-13.68ZM105 99.77q-10.59 0-18.29-4.52a30.54 30.54 0 0 1-11.89-12.64 40.52 40.52 0 0 1-4.18-18.84 40.75 40.75 0 0 1 4.18-18.93A30.6 30.6 0 0 1 86.71 32.2 35.52 35.52 0 0 1 105 27.68a35.58 35.58 0 0 1 18.3 4.52 30.57 30.57 0 0 1 11.88 12.64 40.76 40.76 0 0 1 4.19 18.93 40.52 40.52 0 0 1-4.19 18.84 30.51 30.51 0 0 1-11.88 12.64q-7.71 4.53-18.3 4.52Zm22.14-94.45v10.5H82.87V5.32Zm-22 79.45a12 12 0 0 0 10.89-6q3.7-6 3.7-15.13T116 48.48a12 12 0 0 0-10.89-6 12.15 12.15 0 0 0-11 6q-3.73 6-3.73 15.16t3.73 15.13a12.16 12.16 0 0 0 10.98 6ZM186.3 28.59v14.55h-13.14V77q0 4 1.82 5.4a7.5 7.5 0 0 0 4.73 1.41 14.72 14.72 0 0 0 2.72-.25l2.09-.38 3 14.41c-1 .3-2.33.66-4.09 1.06a34.13 34.13 0 0 1-6.41.75q-10.55.47-16.93-4.56T153.8 79.5V43.14h-9.55V28.59h9.55V11.86h19.36v16.73ZM216 99.73q-10 0-16.59-5.23t-6.59-15.59q0-7.81 3.68-12.27a21.19 21.19 0 0 1 9.66-6.53 54.78 54.78 0 0 1 12.84-2.7 98.57 98.57 0 0 0 13-1.91q3.92-1 3.91-4.36v-.28a8.42 8.42 0 0 0-2.7-6.68q-2.72-2.35-7.66-2.36a13.77 13.77 0 0 0-8.32 2.27 10.7 10.7 0 0 0-4.09 5.77l-17.91-1.45a23.88 23.88 0 0 1 9.93-15.14q7.94-5.58 20.48-5.59a42.24 42.24 0 0 1 14.54 2.46 24.19 24.19 0 0 1 10.94 7.66q4.16 5.21 4.16 13.52v47.09h-18.36v-9.68h-.54a20.18 20.18 0 0 1-7.62 7.93q-5.07 3.07-12.76 3.07Zm5.54-13.37a15 15 0 0 0 10.46-3.7 11.94 11.94 0 0 0 4.09-9.2v-7.41a11.38 11.38 0 0 1-3.52 1.36c-1.6.39-3.29.73-5.1 1s-3.41.54-4.84.75a19.19 19.19 0 0 0-8.2 2.87 7.06 7.06 0 0 0-3.11 6.22 6.94 6.94 0 0 0 2.88 6 12.43 12.43 0 0 0 7.31 2.11ZM278.69 19.59a10.41 10.41 0 0 1-7.37-2.89 9.14 9.14 0 0 1-3.09-6.93 9.1 9.1 0 0 1 3.09-6.91 11 11 0 0 1 14.78 0 9.1 9.1 0 0 1 3.09 6.91 9.14 9.14 0 0 1-3.09 6.93 10.45 10.45 0 0 1-7.41 2.89ZM269 98.41V28.59h19.36v69.82Z" fill="yellow"/>
    </symbol>

    <!-- React Hook Form -->
    <symbol id="react-hook-form" viewBox="0 0 150 150">
      <g fill="none" fill-rule="evenodd">
        <rect fill="#EC5990" width="150" height="150" rx="20"/>
        <g fill="#FFF">
          <path d="M98.56 38.32H83.14a8.54 8.54 0 0 0-16.27 0H51.44a11 11 0 0 0-11 11v57.31a11 11 0 0 0 11 11h47.12a11 11 0 0 0 11-11V49.32a11 11 0 0 0-11-11zm-30.92 2a1 1 0 0 0 1-.79 6.54 6.54 0 0 1 12.78 0 1 1 0 0 0 1 .79h5.38v6.55a3 3 0 0 1-3 3H65.25a3 3 0 0 1-3-3v-6.55h5.39zm39.92 66.31a9 9 0 0 1-9 9H51.44a9 9 0 0 1-9-9V49.32a9 9 0 0 1 9-9h8.81v6.55a5 5 0 0 0 5 5h19.5a5 5 0 0 0 5-5v-6.55h8.81a9 9 0 0 1 9 9v57.31z"/>
          <path d="M96.6 71H79a1 1 0 0 0 0 2h17.6a1 1 0 0 0 0-2zm-26 0H53a1 1 0 0 0 0 2h17.6a1 1 0 0 0 0-2zm26.05 23H79a1 1 0 0 0 0 2h17.65a1 1 0 0 0 0-2zm-26 0H53a1 1 0 0 0 0 2h17.65a1 1 0 0 0 0-2z"/>
        </g>
      </g>
    </symbol>

    <!-- Formik -->
    <symbol id="formik" viewBox="0 0 145 127">
      <path d="M141.824 17.375c-.026-.02-30.283-15.327-30.283-15.327C111.402 2.03 3.449 2 3.449 2c-.36.216-.388.22-.401.243C3.03 2.383 3 17.71 3 17.71c.123.269.15.31.197.343.021.017 28.589 14.474 28.589 14.474H3.449c-.36.217-.386.222-.4.244-.016.14-.048 15.466-.048 15.466.123.269.15.309.198.343.02.017 28.588 14.474 28.588 14.474H3.45c-.36.217-.386.221-.4.244-.016.14-.048 15.465-.048 15.465.123.27.15.31.198.344.02.016 28.588 14.473 28.588 14.473H3.45c-.36.218-.388.222-.401.244C3.03 93.964 3 109.29 3 109.29c.123.27.15.31.197.344.021.016 30.26 15.318 30.26 15.318.065.033 50.634.048 50.634.048.247 0 .449-.2.449-.446v-15.26c-.123-.272-.15-.31-.2-.344-.02-.017-30.258-15.32-30.258-15.32-.14-.018-19.973-.048-19.973-.048v-14.37h78.712c.247 0 .449-.2.449-.447V63.5c-.123-.27-.15-.31-.199-.344-.02-.016-30.26-15.317-30.26-15.317-.14-.018-49.043-.047-49.043-.047L5.322 33.42H141.55c.247 0 .449-.2.449-.447V17.71c-.136-.304-.153-.316-.176-.335zM3.897 3.171l29.315 14.813v14.262L3.897 17.435V3.17zm29.871 14.092L5.322 2.891h105.91l28.443 14.372H33.768zm48.733 31.42 28.445 14.37H34.11v-14.37h48.392zm-28.73 45.792 28.445 14.372H33.768L5.322 94.475H53.77zm-49.874.28 29.315 14.812v14.262L3.897 109.018V94.754zm30.212 14.983h49.534v14.37H34.109v-14.37zM3.897 64.226l29.315 14.813V93.3L3.897 78.49V64.226zm1.425-.28h107.05V78.32H33.767L5.322 63.946zm27.89-1.172L3.897 47.963V33.699l29.315 14.813v14.262zm.897-30.247v-14.37h106.994v14.37H34.109z" stroke="" stroke-width="2.143" fill="skyblue"/>
    </symbol>

    <!-- Wordpress -->
    <symbol id="wordpress" viewBox="0 0 128 128" fill="white">
      <path fill-rule="evenodd" clip-rule="evenodd" fill="#337BA2" d="M43.257 121.233c.079 1.018.029 2.071.299 3.037.115.408.9.629 1.381.935l.625.401c-.235.137-.469.389-.707.392a165.82 165.82 0 0 1-5.598.002c-.248-.004-.491-.237-.735-.364.198-.143.388-.391.597-.408 1.251-.105 1.632-.865 1.626-1.989-.011-2.066-.006-4.134.003-6.202.005-1.152-.322-1.993-1.679-2.045-.188-.008-.366-.296-.548-.453.182-.111.366-.321.546-.318 2.39.029 4.79-.024 7.167.177 1.873.159 3.107 1.455 3.234 2.949.138 1.639-.703 2.764-2.605 3.486l-.729.272c1.225 1.158 2.31 2.29 3.516 3.272.535.437 1.293.697 1.989.817 1.393.238 2.149-.361 2.187-1.742.061-2.229.032-4.461.011-6.691-.01-1.022-.449-1.697-1.589-1.753-.215-.01-.42-.253-.629-.388.239-.14.478-.4.715-.399 2.432.02 4.875-.055 7.291.161 4.123.366 6.42 3.797 5.214 7.588-.735 2.312-2.495 3.619-4.759 3.773-3.958.27-7.938.215-11.909.243-.316.002-.706-.341-.944-.623-.914-1.085-1.776-2.213-2.668-3.316-.27-.334-.571-.641-.858-.961l-.444.147zm13.119-5.869c0 2.785-.034 5.484.036 8.18.011.414.41 1.039.78 1.187 1.457.581 3.812-.368 4.47-1.842.881-1.973.988-4.05-.203-5.922-1.175-1.847-3.132-1.663-5.083-1.603zm-13.021 4.561c1.262.032 2.653.313 3.192-1.073.302-.777.234-1.982-.183-2.69-.633-1.076-1.906-.888-3.01-.752l.001 4.515z"/>
      <path fill-rule="evenodd" clip-rule="evenodd" fill="#515151" d="M96.77 119.35c.834-.18 1.661-.154 2.198-.537.451-.32.563-1.116.908-1.886.199.357.386.539.39.724.025 1.38.03 2.761 0 4.141-.005.216-.226.427-.347.641-.136-.114-.339-.2-.399-.346-.733-1.771-.729-1.772-2.843-1.583.309 1.382-.763 3.149.89 4.058.843.463 2.203.371 3.189.068.841-.256 1.48-1.171 2.212-1.798v3.096c-.405.036-.712.086-1.021.086-4.141.006-8.282-.012-12.422.019-.714.006-1.197-.174-1.633-.773-.857-1.182-1.799-2.302-2.725-3.432-.232-.283-.534-.508-1.021-.962 0 1.154-.042 1.981.012 2.802.056.858.469 1.427 1.418 1.534.279.032.529.325.792.5-.271.105-.54.298-.812.303-1.827.026-3.653.025-5.48.001-.28-.004-.558-.173-.866-.275l.156-.303c2.244-.906 2.25-.906 2.248-3.508a343.88 343.88 0 0 0-.039-4.87c-.017-1.121-.321-2.01-1.689-2.058-.197-.007-.384-.287-.577-.441.226-.113.453-.325.678-.323 2.311.022 4.635-.054 6.93.16 2.512.234 4.065 2.329 3.132 4.257-.51 1.053-1.688 1.783-2.725 2.818.984.9 2.117 2.194 3.491 3.135 1.941 1.33 3.268.571 3.317-1.748.041-1.947-.007-3.896-.015-5.845-.004-1.155-.361-1.994-1.717-2.013-.185-.003-.367-.2-.586-.33.705-.52 7.499-.709 10.448-.332l.19 3.214-.333.136c-.686-.717-.601-2.199-2.02-2.204-1.084-.005-2.168-.119-3.332-.189.003 1.356.003 2.59.003 4.063zm-12.647.566c2.61.105 3.646-.603 3.584-2.364-.061-1.698-1.195-2.383-3.584-2.121v4.485z"/>
      <path fill-rule="evenodd" clip-rule="evenodd" fill="#3179A1" d="M11.555 120.682c.996-2.947 1.979-5.897 3.003-8.834.141-.404.486-.737.737-1.104.248.378.587.725.729 1.14.931 2.719 1.817 5.451 2.722 8.179.072.219.165.43.375.969.928-2.813 1.787-5.308 2.564-7.829.27-.873-.081-1.504-1.097-1.618-.335-.039-.66-.17-1.051-.274.676-.749 5.957-.804 6.827-.108-.236.112-.424.271-.618.279-1.65.064-2.414 1.097-2.884 2.521-1.258 3.81-2.54 7.611-3.817 11.415-.133.395-.3.778-.452 1.166l-.421.03-3.579-10.821-3.619 10.788-.354.022c-.185-.401-.412-.79-.547-1.207-1.167-3.581-2.319-7.167-3.474-10.751-.495-1.539-.99-3.069-3.012-3.167-.132-.006-.253-.229-.38-.35.158-.13.316-.373.476-.375 2.272-.024 4.546-.024 6.818.001.158.001.313.247.47.379-.169.126-.319.309-.508.367-1.82.55-1.951.761-1.378 2.526.723 2.233 1.468 4.457 2.204 6.686l.266-.03z"/>
      <path fill-rule="evenodd" clip-rule="evenodd" fill="#4D4D4D" d="M65.484 111.25c.279-.241.435-.494.587-.491 2.957.044 5.938-.093 8.864.247 2.768.321 4.301 2.919 3.466 5.359-.748 2.189-2.593 2.874-4.68 3.064-.881.081-1.776.013-2.824.013.093 1.453.14 2.78.275 4.098.113 1.114.863 1.56 1.923 1.65.239.021.457.288.684.442-.25.126-.498.36-.75.363-2.191.029-4.384.028-6.575.002-.263-.003-.523-.219-.784-.336.218-.165.432-.463.656-.472 1.463-.056 2.012-.964 2.03-2.235.044-3.081.04-6.162.002-9.243-.016-1.31-.649-2.148-2.072-2.206-.212-.008-.422-.13-.802-.255zm5.523 6.706c2.682.278 3.703.022 4.349-1.167.648-1.192.65-2.439-.116-3.566-1.059-1.559-2.679-1.098-4.233-1.154v5.887z"/>
      <path fill-rule="evenodd" clip-rule="evenodd" fill="#3279A1" d="M31.076 126.463c-2.396-.104-4.348-.856-5.794-2.647-2.053-2.542-1.741-5.994.711-8.192 2.645-2.37 7.018-2.472 9.733-.171 1.838 1.559 2.709 3.533 2.111 5.953-.675 2.73-2.601 4.192-5.218 4.856-.546.137-1.122.149-1.543.201zm4.544-6.249-.224-.147c-.149-.709-.236-1.439-.458-2.125-.642-1.971-1.986-2.945-3.963-2.949-1.97-.004-3.295.975-3.939 2.967-.572 1.771-.498 3.526.383 5.18 1.315 2.468 4.829 2.931 6.549.736.802-1.023 1.116-2.43 1.652-3.662z"/>
      <path fill-rule="evenodd" clip-rule="evenodd" fill="#505050" d="m122.748 114.317.893-.782v4.376l-.259.195c-.209-.295-.498-.562-.615-.891-.591-1.655-1.865-2.553-3.319-2.117-.499.149-1.099.649-1.232 1.11-.109.376.285 1.12.671 1.374 1.008.664 2.131 1.156 3.214 1.703 2.356 1.192 3.198 2.845 2.401 4.736-.809 1.921-3.263 2.915-5.462 2.173-.606-.206-1.167-.544-1.728-.811l-.857 1.126-.379-.116c0-1.477-.009-2.954.015-4.431.002-.143.215-.282.33-.423.18.218.448.41.527.66.523 1.656 1.53 2.756 3.325 2.94 1.023.105 2.023-.021 2.378-1.187.324-1.067-.42-1.669-1.219-2.124-.879-.5-1.808-.909-2.708-1.37-.395-.203-.798-.404-1.153-.665-1.257-.927-1.753-2.263-1.381-3.618.332-1.211 1.523-2.237 2.997-2.28 1.091-.031 2.195.25 3.561.422zm-16.269 11.027c-.166.33-.258.607-.429.821-.103.128-.356.25-.49.208-.127-.04-.262-.294-.265-.456-.021-1.299-.021-2.599.001-3.896.002-.159.178-.314.274-.471.184.117.446.193.537.362.169.314.208.696.356 1.024.668 1.482 2.021 2.409 3.573 2.184.649-.093 1.45-.586 1.772-1.138.434-.741-.086-1.504-.814-1.925-.979-.566-1.993-1.075-3.009-1.571-2.297-1.121-3.266-2.972-2.443-4.719.818-1.737 3.33-2.46 5.429-1.556.256.11.499.25.7.354l1.078-.886c.113.317.185.426.186.535.008 1.216.005 2.431.005 3.646l-.317.212c-.211-.27-.504-.509-.619-.814-.573-1.532-1.48-2.381-2.81-2.219-.624.075-1.419.504-1.726 1.018-.45.755.2 1.361.885 1.729.963.519 1.949.992 2.926 1.483 2.418 1.213 3.269 2.898 2.434 4.824-.813 1.876-3.346 2.847-5.517 2.077-.564-.199-1.087-.52-1.717-.826z"/>
      <path fill-rule="evenodd" clip-rule="evenodd" fill="#494949" d="M65.261 1.395C38.48.917 16.103 22.648 16.096 49c-.008 27.11 21.338 48.739 48.077 48.699 26.49-.039 47.932-21.587 47.932-48.167C112.104 23.384 90.76 1.85 65.261 1.395zm-1.148 93.887c-25.326.006-45.694-20.529-45.693-46.067.001-24.88 20.685-45.48 45.674-45.489 25.432-.008 45.695 20.654 45.687 46.587-.008 24.483-20.807 44.964-45.668 44.969zm24.395-59.347c-.994-1.638-2.216-3.227-2.778-5.013-.64-2.032-1.171-4.345-.832-6.382.576-3.454 3.225-5.169 6.812-5.497C72.086.83 41.248 7.349 29.885 27.138c4.374-.203 8.55-.468 12.729-.524.791-.011 2.1.657 2.286 1.277.416 1.385-.748 1.868-1.986 1.963-1.301.102-2.604.199-4.115.314l14.935 44.494c.359-.587.507-.752.572-.945 2.762-8.255 5.54-16.505 8.232-24.784.246-.755.124-1.755-.146-2.531-1.424-4.111-3.13-8.133-4.379-12.294-.855-2.849-1.988-4.692-5.355-4.362-.574.056-1.273-1.178-1.916-1.816.777-.463 1.548-1.316 2.332-1.328a659.24 659.24 0 0 1 20.572.006c.786.013 1.557.889 2.335 1.364-.681.622-1.267 1.554-2.063 1.794-1.276.385-2.691.312-4.218.448l14.953 44.484c2.266-7.524 4.374-14.434 6.422-21.36 1.83-6.182.74-11.957-2.567-17.403zM52.719 88.149c-.092.267-.097.563-.168 1.007 8.458 2.344 16.75 2.175 25.24-.685l-12.968-35.52c-4.151 12.064-8.131 23.63-12.104 35.198zm-6.535-1.606L26.646 32.947c-8.814 17.217-2.109 43.486 19.538 53.596zm54.452-55.403c-.27 2.994-.082 6.327-.941 9.362-2.023 7.152-4.496 14.181-6.877 21.229-2.588 7.66-5.28 15.286-7.927 22.927 12.437-7.372 19.271-18.253 20.359-32.555.62-8.14-2.188-19.412-4.614-20.963z"/>
    </symbol>

    <!-- Webflow -->
    <symbol id="webflow" viewBox="0 0 128 128">
      <path fill="#4353ff" d="M.994.994v126.012h126.012V.994H.994zm71.92 41.715s3.988 30.056 3.988 31.443l5.785-18.12h-.04c2.552-6.86 7.579-13.323 17.152-13.323l-13.563 32.75a18.428 18.318 0 0 1-17.549 12.809s-3.99-28.153-3.99-28.788l-5.982 15.465c-2.673 6.86-7.857 13.323-17.43 13.323l-7.5-45.518a14.918 14.829 0 0 1 14.479 13.44s.998 16.693.998 18.001l7.06-18.16c2.553-6.86 7.418-13.322 16.592-13.322z"/>
    </symbol>

    <!-- Bubble -->
    <symbol id="bubble" viewBox="0 0 680 761" fill="darkblue">
      <path d="M162 242.9c0 142.1.3 215.3 1.1 222.2 9.6 93.7 74.4 173.8 164.9 203.6 9.6 3.1 24.7 6.7 38 9 15.1 2.6 56.9 2.6 72.5 0 51.3-8.6 94.4-30.2 130.7-65.6 36.2-35.1 58.5-76.2 68.7-126.1 5.1-25.1 5.4-62.3.8-89C620 290.7 539.4 213.4 434 201c-12.5-1.5-39.3-1.2-52.4.5-45.6 6-87.6 27.1-122.9 61.9l-9.7 9.5V31h-87v211.9zm268.1 52c60.3 12 105.6 58.1 117.6 119.6 2.6 13.4 2.3 39.5-.6 53.5-6.9 33.1-21.9 59.5-46.6 81.8-39.7 36-95.7 47.2-147.4 29.6-34-11.7-65.8-39.4-82.3-72.1-11.4-22.3-16-41.2-16.1-65.8-.1-25.6 4-44 14.8-66.1 22-45.2 65.5-76.1 115.3-82.3 10.9-1.4 33.9-.4 45.3 1.8zM89.2 562c-27.7 5-48 27.2-49.8 54.8-1.9 28.5 16.8 54.5 44.2 61.6 7.9 2 21.9 2 29.8 0 21.3-5.5 38.3-23.2 43.2-45.1 1.9-8.7 1.5-21.5-1-29.6-4.3-13.6-17-29.1-29.1-35.4-10.7-5.6-26.2-8.2-37.3-6.3z"/>
    </symbol>

    <!-- Ghost -->
    <symbol id="ghost" viewBox="0 0 128 128">
      <path style="stroke:none;fill-rule:nonzero;fill:lightgreen;fill-opacity:1" d="M58.527 4.8c-9.183.833-19.71 4.606-27.582 9.856-4.32 2.848-13.058 10.305-15.203 12.961-5.277 6.43-9.406 15.2-10.847 22.942-.672 3.746-.766 15.105-.16 20.16 1.152 9.219 3.327 16.77 7.042 24.097 3.391 6.72 6.27 10.977 9.79 14.465 3.394 3.36 6.242 5.086 11.136 6.817 1.824.605 4.32 1.789 5.535 2.558 6.946 4.45 14.465 6.559 23.203 6.559 4.797 0 7.614-.48 12.094-2.078 6.848-2.403 12.16-5.602 16.703-10.047 2.852-2.785 3.235-3.043 5.602-3.844 5.152-1.726 8.863-4.062 13.406-8.414 6.945-6.719 11.586-14.656 13.984-23.969 2.145-8.351 1.57-14.879-2.496-27.582-3.199-10.015-5.855-14.242-14.972-23.648-6.465-6.656-11.715-10.367-20.801-14.785C74.465 5.762 66.879 4.03 58.527 4.8Zm6.594.927c.383.16-.418.32-2.242.449-6.496.418-18.781 2.847-22.43 4.383-.832.351-1.57.609-1.633.511-.16-.16 4.094-1.949 6.946-2.91 2.59-.894 7.52-2.047 10.078-2.398 2.496-.32 8.48-.356 9.281-.035Zm-1.984 4.546c7.457.446 10.367.895 4.543.704-8.254-.32-18.72.703-25.758 2.464-2.02.512-3.715.895-3.746.832-.192-.195 5.344-2.722 6.945-3.203 3.84-1.117 9.246-1.343 18.016-.797ZM38.398 11.36c0 .067-.414.352-.957.641-1.218.61-1.28.352-.066-.29.992-.542 1.023-.573 1.023-.35Zm35.84 2.176c6.946 1.57 12.035 3.328 18.403 6.496 6.367 3.168 8.16 4.512 11.617 8.77 8.094 9.953 12.156 18.015 13.148 26.078.61 5.059.48 7.648-.734 12.45-1.344 5.245-3.008 8.8-6.656 13.952-1.407 2.016-3.871 5.535-5.473 7.84-3.453 4.992-6.016 8.254-8.606 11.008-1.503 1.566-2.562 2.305-4.578 3.262-3.136 1.472-14.625 5.41-15.808 5.41-.446 0-2.75-.992-5.153-2.207-4.605-2.371-5.855-2.817-11.359-4.067-2.496-.543-4.414-1.246-6.719-2.398-14.047-7.137-22.304-14.723-27.746-25.535-1.789-3.586-2.047-3.649-.414-.13 2.176 4.704 5.985 10.048 9.633 13.567 4.352 4.16 12.223 9.602 18.078 12.48 1.473.735 4.191 2.208 6.05 3.298 4.063 2.398 5.856 3.168 9.505 4.16 1.918.48 2.847.894 2.91 1.246.191.992-1.09 1.73-4.61 2.594-1.917.449-3.68 1.054-3.933 1.312-.738.734-.258.64 6.781-1.09l6.336-1.597 3.524.382c1.918.192 3.488.45 3.488.575 0 .195-3.715 1.984-6.113 2.945-4.258 1.727-12.223 3.328-18.047 3.617-3.328.16-3.457.125-2.625-.351.48-.29.863-.547.863-.61 0-.062-1.344.192-2.945.512-2.848.61-3.102.61-5.696.098-6.496-1.25-15.617-7.235-21.246-13.922-5.504-6.528-10.754-16.512-13.09-24.961-1.566-5.63-1.953-8.606-1.984-15.52 0-6.238.031-6.496 1.059-10.558 2.496-9.633 6.109-18.72 8.863-22.082l.766-.957-.637 2.015c-.93 3.07-.707 3.488.285.543 1.664-4.96 4-7.746 9.602-11.39 1.886-1.25 3.71-1.985 9.597-3.938 12.61-4.16 13.762-4.352 22.946-4.223 6.113.094 7.52.223 10.718.926Zm-62.11 23.328C9.313 42.465 8 46.688 6.879 53.602c-.671 4.32-.702 4.414-.956 2.91-.32-2.047.031-7.23.637-9.504.671-2.594 2.242-6.207 3.68-8.672 1.187-1.984 2.753-4.098 3.073-4.098.063 0-.449 1.188-1.183 2.625Zm3.2.899c-1.375 3.168-3.168 9.086-3.937 12.797-.895 4.418-1.47 12.351-1.153 15.84.418 4.671 1.219 9.699 2.082 13.218.926 3.809 5.918 13.985 9.602 19.582 2.398 3.711 2.75 4.48 1.98 4.48-1.277 0-6.656-5.245-9.054-8.831-2.274-3.391-2.977-5.535-3.137-9.375-.125-2.657-.32-3.52-1.438-6.434-1.472-3.71-1.793-5.312-2.242-11.137-.511-6.207.418-13.98 2.367-19.742 1.41-4.222 5.57-13.281 6.082-13.281.032 0-.48 1.312-1.152 2.883Zm106.879 19.902c2.656 12.258.512 24-6.238 34.434-3.137 4.797-9.059 10.336-13.922 12.992-1.918 1.055-5.406 2.43-6.11 2.43-.609 0 2.75-3.551 7.293-7.711 5.504-5.024 8.098-8.13 10.016-12.032.77-1.539 2.145-4 3.074-5.41 2.207-3.36 3.457-5.887 4.512-8.992 1.121-3.297 1.375-8.414.64-13.184-.577-3.68-.671-6.91-.226-6.113.16.258.578 1.89.961 3.586Zm-4.863 9.922c-.098.254-.192.156-.192-.195-.03-.352.063-.543.16-.414.094.093.13.382.032.609Zm-.703 5.344c-1.344 7.453-4.543 14.14-9.121 19.007-1.918 2.079-6.528 5.758-9.122 7.293l-1.277.77.992-1.281c.575-.703 3.008-4.16 5.473-7.68 2.46-3.52 5.535-7.934 6.848-9.793 2.847-4.031 4.734-7.582 5.757-10.848.641-1.949.801-2.207.864-1.437.066.512-.125 2.305-.414 3.969Zm-94.528 31.55c2.461 2.047 8.285 7.934 8.285 8.383 0 .832-2.238-.16-5.308-2.336-2.817-1.984-5.57-5.632-5.57-7.39 0-.578.703-.227 2.593 1.343Zm41.918.352c.832.258 1.762.77 2.047 1.09.578.605.547.637-.254.637-.8 0-3.777-.993-4.672-1.567-.222-.16-.351-.418-.222-.61.222-.35.797-.253 3.101.45Zm25.762 1.055c-.098.129-.961.867-1.922 1.601-1.664 1.282-1.824 1.344-3.742 1.246l-1.984-.093 3.808-1.504c4.414-1.73 4.063-1.602 3.84-1.25Zm-48.48 10.37c1.566.735 2.847 1.438 2.847 1.567 0 .672-5.984-.863-7.52-1.953-1.183-.832-4.32-4.351-4.32-4.863 0-.13 1.375.703 3.106 1.855 1.695 1.121 4.351 2.657 5.886 3.395Zm48.03-4c-4.702 5.598-13.054 10.27-21.503 12.063-2.945.61-9.344.61-12.895 0-6.082-1.054-12.61-3.808-11.875-4.992.13-.191 1.313-.258 3.106-.129 3.136.227 9.566-.191 15.586-.992 8.765-1.184 13.726-2.527 19.199-5.184 2.941-1.437 4.062-1.726 9.215-2.27.258 0-.13.673-.832 1.505Zm0 0"/>
      <path style="stroke:none;fill-rule:nonzero;fill:lightgreen;fill-opacity:1" d="M20.223 35.52c0 .449.066.609.16.382.066-.191.066-.574 0-.797-.094-.195-.16-.035-.16.415ZM19.902 37.602c0 .511.067.703.16.382.067-.289.067-.738 0-.96-.093-.192-.16.03-.16.578ZM22.113 69.121c0 .254.125.703.285.957.387.578.387.067 0-.797-.191-.418-.285-.48-.285-.16Zm0 0"/>
    </symbol>

    <!-- Vite -->
    <symbol id="vite" viewBox="0 0 32 32" fill="none">
      <path d="m29.884 6.146-13.142 23.5a.714.714 0 0 1-1.244.005L2.096 6.148a.714.714 0 0 1 .746-1.057l13.156 2.352a.714.714 0 0 0 .253 0l12.881-2.348a.714.714 0 0 1 .752 1.05z" fill="#41D1FF"/>
      <path d="M22.264 2.007 12.54 3.912a.357.357 0 0 0-.288.33l-.598 10.104a.357.357 0 0 0 .437.369l2.707-.625a.357.357 0 0 1 .43.42l-.804 3.939a.357.357 0 0 0 .454.413l1.672-.508a.357.357 0 0 1 .454.414l-1.279 6.187c-.08.387.435.598.65.267l.143-.222 7.925-15.815a.357.357 0 0 0-.387-.51l-2.787.537a.357.357 0 0 1-.41-.45l1.818-6.306a.357.357 0 0 0-.412-.45z" fill="#ffd500"/>
    </symbol>

    <!-- Webpack -->
    <symbol id="webpack" viewBox="0 0 128 128">
      <path fill="#8ed6fb" d="M117.29 98.1 66.24 127v-22.51L98 87l19.29 11.1zm3.5-3.16V34.55l-18.68 10.8v38.81l18.67 10.77zM10.71 98.1l51 28.88v-22.49L29.94 87zm-3.5-3.16V34.55l18.68 10.8v38.81zm2.19-64.3L61.76 1v21.76L28.21 41.21l-.27.15zm109.18 0L66.24 1v21.76L99.79 41.2l.27.15 18.54-10.71z"/>
      <path fill="#1c78c0" d="M61.76 99.37 30.37 82.1V47.92L61.76 66zm4.48 0 31.39-17.25v-34.2L66.24 66zM32.5 44 64 26.66 95.5 44 64 62.16 32.5 44z"/>
    </symbol>

    <!-- Git -->
    <symbol id="git" viewBox="0 0 128 128">
      <path fill="#F34F29" d="M124.737 58.378 69.621 3.264c-3.172-3.174-8.32-3.174-11.497 0L46.68 14.71l14.518 14.518c3.375-1.139 7.243-.375 9.932 2.314 2.703 2.706 3.461 6.607 2.294 9.993l13.992 13.993c3.385-1.167 7.292-.413 9.994 2.295 3.78 3.777 3.78 9.9 0 13.679a9.673 9.673 0 0 1-13.683 0 9.677 9.677 0 0 1-2.105-10.521L68.574 47.933l-.002 34.341a9.708 9.708 0 0 1 2.559 1.828c3.778 3.777 3.778 9.898 0 13.683-3.779 3.777-9.904 3.777-13.679 0-3.778-3.784-3.778-9.905 0-13.683a9.65 9.65 0 0 1 3.167-2.11V47.333a9.581 9.581 0 0 1-3.167-2.111c-2.862-2.86-3.551-7.06-2.083-10.576L41.056 20.333 3.264 58.123a8.133 8.133 0 0 0 0 11.5l55.117 55.114c3.174 3.174 8.32 3.174 11.499 0l54.858-54.858a8.135 8.135 0 0 0-.001-11.501z"/>
    </symbol>

    <!-- Github -->
    <symbol id="github" viewBox="0 0 128 128">
      <g fill="#808080">
        <path fill-rule="evenodd" clip-rule="evenodd" d="M64 5.103c-33.347 0-60.388 27.035-60.388 60.388 0 26.682 17.303 49.317 41.297 57.303 3.017.56 4.125-1.31 4.125-2.905 0-1.44-.056-6.197-.082-11.243-16.8 3.653-20.345-7.125-20.345-7.125-2.747-6.98-6.705-8.836-6.705-8.836-5.48-3.748.413-3.67.413-3.67 6.063.425 9.257 6.223 9.257 6.223 5.386 9.23 14.127 6.562 17.573 5.02.542-3.903 2.107-6.568 3.834-8.076-13.413-1.525-27.514-6.704-27.514-29.843 0-6.593 2.36-11.98 6.223-16.21-.628-1.52-2.695-7.662.584-15.98 0 0 5.07-1.623 16.61 6.19C53.7 35 58.867 34.327 64 34.304c5.13.023 10.3.694 15.127 2.033 11.526-7.813 16.59-6.19 16.59-6.19 3.287 8.317 1.22 14.46.593 15.98 3.872 4.23 6.215 9.617 6.215 16.21 0 23.194-14.127 28.3-27.574 29.796 2.167 1.874 4.097 5.55 4.097 11.183 0 8.08-.07 14.583-.07 16.572 0 1.607 1.088 3.49 4.148 2.897 23.98-7.994 41.263-30.622 41.263-57.294C124.388 32.14 97.35 5.104 64 5.104z"/>
        <path d="M26.484 91.806c-.133.3-.605.39-1.035.185-.44-.196-.685-.605-.543-.906.13-.31.603-.395 1.04-.188.44.197.69.61.537.91zm2.446 2.729c-.287.267-.85.143-1.232-.28-.396-.42-.47-.983-.177-1.254.298-.266.844-.14 1.24.28.394.426.472.984.17 1.255zm2.382 3.477c-.37.258-.976.017-1.35-.52-.37-.538-.37-1.183.01-1.44.373-.258.97-.025 1.35.507.368.545.368 1.19-.01 1.452zm3.261 3.361c-.33.365-1.036.267-1.552-.23-.527-.487-.674-1.18-.343-1.544.336-.366 1.045-.264 1.564.23.527.486.686 1.18.333 1.543zm4.5 1.951c-.147.473-.825.688-1.51.486-.683-.207-1.13-.76-.99-1.238.14-.477.823-.7 1.512-.485.683.206 1.13.756.988 1.237zm4.943.361c.017.498-.563.91-1.28.92-.723.017-1.308-.387-1.315-.877 0-.503.568-.91 1.29-.924.717-.013 1.306.387 1.306.88zm4.598-.782c.086.485-.413.984-1.126 1.117-.7.13-1.35-.172-1.44-.653-.086-.498.422-.997 1.122-1.126.714-.123 1.354.17 1.444.663zm0 0"/>
      </g>
    </symbol>

    <!-- Bitbucket -->
    <symbol id="bitbucket" viewBox="0 0 128 128">
      <defs>
      <linearGradient id="aa" gradientUnits="userSpaceOnUse" x1="28.593" y1="14.226" x2="16.672" y2="23.532" gradientTransform="scale(4)">
        <stop offset=".176" stop-color="#0052cc"/>
        <stop offset="1" stop-color="#2684ff"/>
      </linearGradient>
      </defs>
      <path d="M19.082 20c-1.918 0-3.355 1.758-3.039 3.516l12.95 79.289c.32 2.078 2.077 3.515 4.155 3.515h62.66c1.442 0 2.72-1.12 3.04-2.558l13.109-80.086c.316-1.918-1.121-3.516-3.039-3.516zM74.07 77.227H54.09l-5.278-28.293h30.215zm0 0" fill="#2684ff"/>
      <path d="M107.64 48.934H78.868L74.07 77.227H54.09l-23.5 27.972s1.12.961 2.719.961h62.66c1.441 0 2.719-1.12 3.039-2.558zm0 0" fill="url(#aa)"/>
    </symbol>

    <!-- VSCode -->
    <symbol id="vscode" viewBox="0 0 128 128">
      <mask id="aa" width="128" height="128" x="0" y="0" maskUnits="userSpaceOnUse" style="mask-type:alpha">
      <path fill="#fff" fill-rule="evenodd" d="M90.767 127.126a7.968 7.968 0 0 0 6.35-.244l26.353-12.681a8 8 0 0 0 4.53-7.209V21.009a8 8 0 0 0-4.53-7.21L97.117 1.12a7.97 7.97 0 0 0-9.093 1.548l-50.45 46.026L15.6 32.013a5.328 5.328 0 0 0-6.807.302l-7.048 6.411a5.335 5.335 0 0 0-.006 7.888L20.796 64 1.74 81.387a5.336 5.336 0 0 0 .006 7.887l7.048 6.411a5.327 5.327 0 0 0 6.807.303l21.974-16.68 50.45 46.025a7.96 7.96 0 0 0 2.743 1.793Zm5.252-92.183L57.74 64l38.28 29.058V34.943Z" clip-rule="evenodd"/>
      </mask>
      <g mask="url(#aa)">
      <path fill="#0065A9" d="M123.471 13.82 97.097 1.12A7.973 7.973 0 0 0 88 2.668L1.662 81.387a5.333 5.333 0 0 0 .006 7.887l7.052 6.411a5.333 5.333 0 0 0 6.811.303l103.971-78.875c3.488-2.646 8.498-.158 8.498 4.22v-.306a8.001 8.001 0 0 0-4.529-7.208Z"/>
      <g filter="url(#ab)">
      <path fill="#007ACC" d="m123.471 114.181-26.374 12.698A7.973 7.973 0 0 1 88 125.333L1.662 46.613a5.333 5.333 0 0 1 .006-7.887l7.052-6.411a5.333 5.333 0 0 1 6.811-.303l103.971 78.874c3.488 2.647 8.498.159 8.498-4.219v.306a8.001 8.001 0 0 1-4.529 7.208Z"/>
      </g>
      <g filter="url(#ac)">
      <path fill="#1F9CF0" d="M97.098 126.882A7.977 7.977 0 0 1 88 125.333c2.952 2.952 8 .861 8-3.314V5.98c0-4.175-5.048-6.266-8-3.313a7.977 7.977 0 0 1 9.098-1.549L123.467 13.8A8 8 0 0 1 128 21.01v85.982a8 8 0 0 1-4.533 7.21l-26.369 12.681Z"/>
      </g>
      <path fill="url(#ad)" fill-rule="evenodd" d="M90.69 127.126a7.968 7.968 0 0 0 6.349-.244l26.353-12.681a8 8 0 0 0 4.53-7.21V21.009a8 8 0 0 0-4.53-7.21L97.039 1.12a7.97 7.97 0 0 0-9.093 1.548l-50.45 46.026-21.974-16.68a5.328 5.328 0 0 0-6.807.302l-7.048 6.411a5.336 5.336 0 0 0-.006 7.888L20.718 64 1.662 81.386a5.335 5.335 0 0 0 .006 7.888l7.048 6.411a5.328 5.328 0 0 0 6.807.303l21.975-16.681 50.45 46.026a7.959 7.959 0 0 0 2.742 1.793Zm5.252-92.184L57.662 64l38.28 29.057V34.943Z" clip-rule="evenodd" opacity=".25" style="mix-blend-mode:overlay"/>
      </g>
      <defs>
      <filter id="ab" width="144.744" height="113.408" x="-8.411" y="22.594" color-interpolation-filters="sRGB" filterUnits="userSpaceOnUse">
      <feFlood flood-opacity="0" result="BackgroundImageFix"/>
      <feColorMatrix in="SourceAlpha" result="hardAlpha" values="0 0 0 0 0 0 0 0 0 0 0 0 0 0 0 0 0 0 127 0"/>
      <feOffset/>
      <feGaussianBlur stdDeviation="4.167"/>
      <feColorMatrix values="0 0 0 0 0 0 0 0 0 0 0 0 0 0 0 0 0 0 0.25 0"/>
      <feBlend in2="BackgroundImageFix" mode="overlay" result="effect1_dropShadow_1_36"/>
      <feBlend in="SourceGraphic" in2="effect1_dropShadow_1_36" result="shape"/>
      </filter>
      <filter id="ac" width="56.667" height="144.007" x="79.667" y="-8.004" color-interpolation-filters="sRGB" filterUnits="userSpaceOnUse">
      <feFlood flood-opacity="0" result="BackgroundImageFix"/>
      <feColorMatrix in="SourceAlpha" result="hardAlpha" values="0 0 0 0 0 0 0 0 0 0 0 0 0 0 0 0 0 0 127 0"/>
      <feOffset/>
      <feGaussianBlur stdDeviation="4.167"/>
      <feColorMatrix values="0 0 0 0 0 0 0 0 0 0 0 0 0 0 0 0 0 0 0.25 0"/>
      <feBlend in2="BackgroundImageFix" mode="overlay" result="effect1_dropShadow_1_36"/>
      <feBlend in="SourceGraphic" in2="effect1_dropShadow_1_36" result="shape"/>
      </filter>
      <linearGradient id="ad" x1="63.922" x2="63.922" y1=".33" y2="127.67" gradientUnits="userSpaceOnUse">
      <stop stop-color="#fff"/>
      <stop offset="1" stop-color="#fff" stop-opacity="0"/>
      </linearGradient>
      </defs>
    </symbol>

    <!-- Sublime Text -->
    <symbol id="sublime-text" viewBox="0 0 32 32" fill="none">
      <circle cx="16" cy="16" r="14" fill="#4B4B4B"/>
      <path fill-rule="evenodd" clip-rule="evenodd" d="M23.998 16.058c0-.235-.18-.37-.401-.303L8.4 20.393A.605.605 0 0 0 8 20.94v4.74c0 .235.18.37.4.303l15.197-4.638c.22-.067.4-.313.4-.547v-4.74Z" fill="#FF9800"/>
      <path fill-rule="evenodd" clip-rule="evenodd" d="M8 15.91c0 .234.18.479.4.546l15.2 4.639c.22.067.4-.068.4-.302v-4.74c0-.235-.18-.48-.4-.548L8.4 10.867c-.22-.068-.4.068-.4.302v4.74Z" fill="#FF9800"/>
      <path fill-rule="evenodd" clip-rule="evenodd" d="M23.998 6.32c0-.235-.18-.37-.401-.303L8.4 10.655a.605.605 0 0 0-.401.547v4.74c0 .235.18.37.4.303l15.197-4.638c.22-.068.4-.313.4-.547V6.32Z" fill="#FF9800"/>
    </symbol>

    <!-- Linear -->
    <symbol id="linear" viewBox="0 0 24 24" fill="none" stroke="#fff">
      <g fill="#3942c0">
        <path d="M3.035 12.943a8.963 8.963 0 0 0 2.587 5.421 8.963 8.963 0 0 0 5.42 2.587l-8.007-8.008ZM3 11.494l9.492 9.492a9.016 9.016 0 0 0 2.378-.459L3.46 9.115A9.016 9.016 0 0 0 3 11.494ZM3.867 8.11l12.009 12.009a8.948 8.948 0 0 0 1.773-1.123L4.99 6.336A8.95 8.95 0 0 0 3.867 8.11ZM5.663 5.595a9 9 0 0 1 12.728 12.728L5.663 5.595Z"/>
      </g>
    </symbol>

    <!-- Jira -->
    <symbol id="jira" viewBox="0 0 128 128">
      <path d="M108.023 16H61.805c0 11.52 9.324 20.848 20.847 20.848h8.5v8.226c0 11.52 9.328 20.848 20.848 20.848V19.977A3.98 3.98 0 0 0 108.023 16zm0 0" fill="#2684ff"/>
      <path d="M85.121 39.04H38.902c0 11.519 9.325 20.847 20.844 20.847h8.504v8.226c0 11.52 9.328 20.848 20.848 20.848V43.016a3.983 3.983 0 0 0-3.977-3.977zm0 0" fill="#2684ff"/>
      <path d="M62.219 62.078H16c0 11.524 9.324 20.848 20.848 20.848h8.5v8.23c0 11.52 9.328 20.844 20.847 20.844V66.059a3.984 3.984 0 0 0-3.976-3.98zm0 0" fill="#2684ff"/>
    </symbol>

    <!-- Postman -->
    <symbol id="postman" viewBox="0 0 128 128">
      <path fill="#f37036" d="M113.117 26.066C92.168-1.062 53.191-6.07 26.062 14.883c-27.125 20.953-32.128 59.93-11.175 87.055 20.957 27.124 59.937 32.124 87.058 11.167 27.114-20.953 32.118-59.918 11.172-87.039Zm0 0"/>
      <path fill="#fff" d="M91.078 24.164a10.038 10.038 0 0 0-5.781 2.426 10.028 10.028 0 0 0-1.54 13.465 10.028 10.028 0 0 0 13.276 2.715h.002v.001l.156.155a10.63 10.63 0 0 0 1.965-1.45A10.341 10.341 0 0 0 99 27.107v-.002l-8.844 8.789-.156-.155 8.844-8.793a10.038 10.038 0 0 0-7.766-2.78zM79.434 38.551c-4.24-.007-11.163 4.799-28.067 21.703l.084.086c-.092-.032-.185-.035-.185-.035l-6.364 6.308a1.035 1.035 0 0 0 .93 1.762l10.914-2.328a.307.307 0 0 0 .092-.17l.242.25-3.72 3.69h-.18l-22.086 22.26 7.086 6.824a1.254 1.254 0 0 0 1.476.149 1.327 1.327 0 0 0 .645-1.356l-1.035-4.5a.534.534 0 0 1 0-.62 117.285 117.285 0 0 0 26.738-17.583l-4.535-4.537.086-.014-2.69-2.689.172-.174.182.186-.094.091 7.137 7.293v-.003c13.68-12.954 23.39-23.367 20.865-30.375a3.83 3.83 0 0 0-1.107-2.208v.004a3.778 3.778 0 0 0-.483-.306c-.083-.088-.156-.178-.244-.264l-.066.066a3.778 3.778 0 0 0-.582-.29l.289-.292c-1.796-1.6-3.28-2.924-5.5-2.93zM30.94 92.21l-5.171 5.172v.004a1.03 1.03 0 0 0-.457 1.125 1.035 1.035 0 0 0 .921.789l12.672.875-7.965-7.965z"/>
      <path fill="#f37036" d="M91.95 23.31a11.047 11.047 0 0 0-7.759 3.17 10.988 10.988 0 0 0-2.39 11.641c-4.741-2.03-11.155 1.51-31.106 21.457a.932.932 0 0 0-.037.094 1.242 1.242 0 0 0-.119.062l-6.309 6.364a1.97 1.97 0 0 0-.363 2.324 2.012 2.012 0 0 0 1.707.984l.313-.203 8.424-1.797-4.03 4.067a.873.873 0 0 0-.054.166l-19.75 19.799a.798.798 0 0 0-.192.238l-5.086 5.09a1.967 1.967 0 0 0-.414 2.043 1.995 1.995 0 0 0 1.656 1.265l12.618.88a1.01 1.01 0 0 0 .52-.415.886.886 0 0 0 0-1.035l-.026-.025a2.243 2.243 0 0 0 .705-.58 2.237 2.237 0 0 0 .406-1.876l-.984-4.187a126.725 126.725 0 0 0 26.334-16.861 1.091 1.091 0 0 0 .248.103c.254-.019.492-.128.672-.308 13.55-12.83 21.515-21.622 21.515-28.602a8.03 8.03 0 0 0-.431-2.85 10.957 10.957 0 0 0 3.845.83l-.015.004a11.219 11.219 0 0 0 5.183-1.45.775.775 0 0 0 .004.001.835.835 0 0 0 .617-.055 9.398 9.398 0 0 0 2.07-1.652 10.873 10.873 0 0 0 3.258-7.758 10.873 10.873 0 0 0-3.257-7.758.93.93 0 0 0-.118-.091 11.045 11.045 0 0 0-7.656-3.078zm-.087 1.772a9.27 9.27 0 0 1 5.586 1.914l-8.068 8.117a.84.84 0 0 0-.076.098.83.83 0 0 0-.239.55.832.832 0 0 0 .313.65h.002l6.1 6.1a9.044 9.044 0 0 1-10.028-1.913c-2.586-2.6-3.336-6.504-1.953-9.891 1.383-3.39 4.68-5.605 8.363-5.625zm7.12 3.432a8.87 8.87 0 0 1 2.033 5.674 9.15 9.15 0 0 1-2.688 6.464 9.989 9.989 0 0 1-1.098.895L92.307 36.7l-.963-.963.265-.265 7.373-6.96zm-.366 4.193a.777.777 0 0 0-.55.031.731.731 0 0 0-.36.426.73.73 0 0 0 .05.559 2.226 2.226 0 0 1-.257 2.328.64.64 0 0 0-.195.488c.004.184.07.36.195.492a.58.58 0 0 0 .414 0 .68.68 0 0 0 .672-.207 3.573 3.573 0 0 0 .465-3.777v.004a.777.777 0 0 0-.434-.344zM79.34 39.43a5.584 5.584 0 0 1 3.31 1.226 4.756 4.756 0 0 0-2.681 1.34L57.162 64.701l-4.476-4.476c11.828-11.772 19.06-17.921 23.556-19.936a5.584 5.584 0 0 1 3.098-.86zm3.965 2.96a2.895 2.895 0 0 1 2.043.844 2.786 2.786 0 0 1 .879 2.121 2.869 2.869 0 0 1-.985 2.07l-24.25 21.106-2.617-2.617 22.887-22.68a2.895 2.895 0 0 1 2.043-.843zm2.994 6.698c-1.69 6.702-10.647 15.783-19.987 24.607l-3.777-3.773L86.3 49.088zM51.367 61.547l.274.27 3.513 3.513-9.63 2.06 5.843-5.843zm5.793 5.84.004.004 1.168 1.195a1.086 1.086 0 0 0 .018.084l.078.012.248.254.82.84-5.385.66 3.05-3.05zm3.867 4.076 3.578 3.576A126.992 126.992 0 0 1 38.75 91.695a1.44 1.44 0 0 0-.777 1.653l1.035 4.5a.31.31 0 0 1 0 .363.31.31 0 0 1-.414 0l-6.102-6.152L51.3 72.975l9.728-1.512zm-29.933 21.94.869.814 4.492 4.492-10.016-.648 4.655-4.659z"/>
    </symbol>


    <!-- Insomnia -->
    <symbol id="insomnia" viewBox="0 0 128 128">
      <path fill="#fff" d="M64 124.746c33.549 0 60.746-27.197 60.746-60.746 0-33.549-27.197-60.746-60.746-60.746C30.45 3.254 3.254 30.451 3.254 64c0 33.55 27.197 60.746 60.746 60.746z"/>
      <path fill="#4000bf" d="M64 0C28.654 0 0 28.654 0 64c0 35.346 28.654 64 64 64 35.346 0 64-28.654 64-64 0-35.346-28.654-64-64-64Zm0 6.509c31.752 0 57.492 25.74 57.492 57.491 0 31.752-25.74 57.492-57.492 57.492S6.508 95.752 6.508 64 32.248 6.509 64 6.509z"/>
      <path fill="#4000BF" d="M64.723 18.44c25.162 0 45.56 20.398 45.56 45.56 0 25.162-20.398 45.56-45.56 45.56-25.161 0-45.559-20.398-45.559-45.56a45.41 45.41 0 0 1 3.427-17.366c3.224 4.391 8.425 7.242 14.29 7.242 9.786 0 17.718-7.932 17.718-17.718 0-5.866-2.85-11.066-7.242-14.29a45.426 45.426 0 0 1 17.366-3.427z"/>
    </symbol>
    
  </defs>
</svg>